<svg width="551" height="390" viewBox="0 0 551 390" fill="none" xmlns="http://www.w3.org/2000/svg">
<rect width="551" height="390" fill="#FAF9FE"/>
<rect width="84" height="390" fill="#BEBEBE"/>
<path d="M91 57C91 45.6863 91 40.0294 94.5147 36.5147C98.0294 33 103.686 33 115 33H293C304.314 33 309.971 33 313.485 36.5147C317 40.0294 317 45.6863 317 57V58C317 69.3137 317 74.9706 313.485 78.4853C309.971 82 304.314 82 293 82H115C103.686 82 98.0294 82 94.5147 78.4853C91 74.9706 91 69.3137 91 58V57Z" fill="#D9D9D9"/>
<rect x="321" y="33" width="226" height="49" rx="12" fill="#ABAAF2"/>
<rect x="8" y="224" width="68" height="140" rx="12" fill="#FFFCFC"/>
</svg>
