<svg width="412" height="394" viewBox="0 0 412 394" fill="none" xmlns="http://www.w3.org/2000/svg">
<rect width="412" height="394" rx="102" fill="url(#paint0_linear_156_5)"/>
<rect x="238.636" y="202.068" width="127" height="88.5811" transform="rotate(45 238.636 202.068)" fill="url(#paint1_linear_156_5)"/>
<path d="M274.068 170.5L362 258.432L335.432 285L252 201.568L274.068 170.5Z" fill="url(#paint2_linear_156_5)"/>
<path d="M161.652 177.317L143.13 195.839C135.534 203.435 131.267 213.737 131.267 224.479C131.267 235.221 135.534 245.524 143.13 253.119C150.726 260.715 161.028 264.983 171.771 264.983C182.513 264.983 192.815 260.715 200.411 253.119L225.089 228.428C229.669 223.847 233.084 218.234 235.046 212.06C237.009 205.886 237.461 199.331 236.366 192.946C235.271 186.561 232.66 180.532 228.753 175.365C224.846 170.198 219.756 166.043 213.911 163.25L206 171.161C205.197 171.966 204.498 172.868 203.921 173.847C208.437 175.146 212.536 177.6 215.813 180.968C219.09 184.336 221.431 188.501 222.605 193.051C223.779 197.601 223.745 202.379 222.507 206.912C221.268 211.444 218.868 215.576 215.544 218.897L190.88 243.575C185.813 248.641 178.942 251.488 171.777 251.488C164.612 251.488 157.741 248.641 152.675 243.575C147.608 238.509 144.762 231.637 144.762 224.472C144.762 217.308 147.608 210.436 152.675 205.37L163.38 194.678C161.87 189.018 161.286 183.15 161.652 177.303V177.317Z" fill="#FFFDFD"/>
<path d="M186.911 152.072C182.33 156.653 178.916 162.266 176.953 168.44C174.991 174.614 174.539 181.168 175.634 187.554C176.729 193.939 179.339 199.968 183.247 205.135C187.154 210.302 192.244 214.457 198.089 217.25L208.551 206.774C203.974 205.546 199.801 203.135 196.45 199.784C193.1 196.432 190.691 192.258 189.465 187.68C188.239 183.102 188.24 178.282 189.467 173.705C190.694 169.128 193.104 164.954 196.455 161.603L221.12 136.925C226.186 131.859 233.058 129.012 240.222 129.012C247.387 129.012 254.259 131.859 259.325 136.925C264.391 141.991 267.237 148.863 267.237 156.027C267.237 163.192 264.391 170.064 259.325 175.13L248.619 185.822C250.131 191.492 250.712 197.364 250.347 203.196L268.869 184.674C276.465 177.079 280.733 166.776 280.733 156.034C280.733 145.292 276.465 134.99 268.869 127.394C261.274 119.798 250.971 115.531 240.229 115.531C229.487 115.531 219.185 119.798 211.589 127.394L186.911 152.072Z" fill="white"/>
<defs>
<linearGradient id="paint0_linear_156_5" x1="380" y1="380" x2="40" y2="14" gradientUnits="userSpaceOnUse">
<stop stop-color="#8F00FF"/>
<stop offset="0.583333" stop-color="#2B94FF"/>
<stop offset="1" stop-color="#00E0FF"/>
</linearGradient>
<linearGradient id="paint1_linear_156_5" x1="246.977" y1="245.957" x2="364.71" y2="242.775" gradientUnits="userSpaceOnUse">
<stop stop-color="#172B63" stop-opacity="0.5"/>
<stop offset="1" stop-color="#6939FF" stop-opacity="0"/>
</linearGradient>
<linearGradient id="paint2_linear_156_5" x1="265.5" y1="188" x2="352.5" y2="275" gradientUnits="userSpaceOnUse">
<stop stop-color="#121D41" stop-opacity="0.5"/>
<stop offset="1" stop-color="#6C35FF" stop-opacity="0"/>
</linearGradient>
</defs>
</svg>
