<svg width="412" height="394" viewBox="0 0 412 394" fill="none" xmlns="http://www.w3.org/2000/svg">
<rect width="412" height="394" rx="102" fill="url(#paint0_linear_156_36)"/>
<path d="M206 197L310.5 137V258L206 318V197Z" fill="#7F2DF1"/>
<path d="M102 136L204 76L309.5 137L206.5 196L102 136Z" fill="white"/>
<path fill-rule="evenodd" clip-rule="evenodd" d="M204 77L104 137L206.5 197L245.52 174.047L279 178L268.521 160.517L308.5 137L204 77Z" fill="white"/>
<path d="M104 137L103.486 136.143L102.039 137.011L103.495 137.863L104 137ZM204 77L204.498 76.1328L203.989 75.8405L203.486 76.1425L204 77ZM206.5 197L205.995 197.863L206.501 198.159L207.007 197.862L206.5 197ZM245.52 174.047L245.637 173.054L245.303 173.015L245.013 173.185L245.52 174.047ZM279 178L278.883 178.993L280.904 179.232L279.858 177.486L279 178ZM268.521 160.517L268.014 159.655L267.145 160.166L267.663 161.031L268.521 160.517ZM308.5 137L309.007 137.862L310.49 136.99L308.998 136.133L308.5 137ZM104.514 137.857L204.514 77.8575L203.486 76.1425L103.486 136.143L104.514 137.857ZM207.005 196.137L104.505 136.137L103.495 137.863L205.995 197.863L207.005 196.137ZM245.013 173.185L205.993 196.138L207.007 197.862L246.027 174.909L245.013 173.185ZM279.117 177.007L245.637 173.054L245.403 175.04L278.883 178.993L279.117 177.007ZM267.663 161.031L278.142 178.514L279.858 177.486L269.379 160.003L267.663 161.031ZM307.993 136.138L268.014 159.655L269.028 161.379L309.007 137.862L307.993 136.138ZM203.502 77.8672L308.002 137.867L308.998 136.133L204.498 76.1328L203.502 77.8672Z" fill="#AB73F6"/>
<path d="M206 196L102 137V258L206 318V196Z" fill="#AB73F6"/>
<g filter="url(#filter0_d_156_36)">
<circle cx="185.5" cy="144.5" r="7.5" fill="#AB73F6"/>
</g>
<g filter="url(#filter1_d_156_36)">
<circle cx="205.5" cy="132.5" r="7.5" fill="#AB73F6"/>
</g>
<g filter="url(#filter2_d_156_36)">
<circle cx="223.5" cy="120.5" r="7.5" fill="#AB73F6"/>
</g>
<path d="M277.5 359L382 299L310.5 258L206 318L277.5 359Z" fill="url(#paint1_linear_156_36)"/>
<defs>
<filter id="filter0_d_156_36" x="174" y="137" width="23" height="23" filterUnits="userSpaceOnUse" color-interpolation-filters="sRGB">
<feFlood flood-opacity="0" result="BackgroundImageFix"/>
<feColorMatrix in="SourceAlpha" type="matrix" values="0 0 0 0 0 0 0 0 0 0 0 0 0 0 0 0 0 0 127 0" result="hardAlpha"/>
<feOffset dy="4"/>
<feGaussianBlur stdDeviation="2"/>
<feComposite in2="hardAlpha" operator="out"/>
<feColorMatrix type="matrix" values="0 0 0 0 0 0 0 0 0 0 0 0 0 0 0 0 0 0 0.25 0"/>
<feBlend mode="normal" in2="BackgroundImageFix" result="effect1_dropShadow_156_36"/>
<feBlend mode="normal" in="SourceGraphic" in2="effect1_dropShadow_156_36" result="shape"/>
</filter>
<filter id="filter1_d_156_36" x="194" y="125" width="23" height="23" filterUnits="userSpaceOnUse" color-interpolation-filters="sRGB">
<feFlood flood-opacity="0" result="BackgroundImageFix"/>
<feColorMatrix in="SourceAlpha" type="matrix" values="0 0 0 0 0 0 0 0 0 0 0 0 0 0 0 0 0 0 127 0" result="hardAlpha"/>
<feOffset dy="4"/>
<feGaussianBlur stdDeviation="2"/>
<feComposite in2="hardAlpha" operator="out"/>
<feColorMatrix type="matrix" values="0 0 0 0 0 0 0 0 0 0 0 0 0 0 0 0 0 0 0.25 0"/>
<feBlend mode="normal" in2="BackgroundImageFix" result="effect1_dropShadow_156_36"/>
<feBlend mode="normal" in="SourceGraphic" in2="effect1_dropShadow_156_36" result="shape"/>
</filter>
<filter id="filter2_d_156_36" x="212" y="113" width="23" height="23" filterUnits="userSpaceOnUse" color-interpolation-filters="sRGB">
<feFlood flood-opacity="0" result="BackgroundImageFix"/>
<feColorMatrix in="SourceAlpha" type="matrix" values="0 0 0 0 0 0 0 0 0 0 0 0 0 0 0 0 0 0 127 0" result="hardAlpha"/>
<feOffset dy="4"/>
<feGaussianBlur stdDeviation="2"/>
<feComposite in2="hardAlpha" operator="out"/>
<feColorMatrix type="matrix" values="0 0 0 0 0 0 0 0 0 0 0 0 0 0 0 0 0 0 0.25 0"/>
<feBlend mode="normal" in2="BackgroundImageFix" result="effect1_dropShadow_156_36"/>
<feBlend mode="normal" in="SourceGraphic" in2="effect1_dropShadow_156_36" result="shape"/>
</filter>
<linearGradient id="paint0_linear_156_36" x1="380" y1="380" x2="40" y2="14" gradientUnits="userSpaceOnUse">
<stop stop-color="#E9F0FE"/>
<stop offset="0.583333" stop-color="#E1F0FF"/>
<stop offset="1" stop-color="#FEFFFF"/>
</linearGradient>
<linearGradient id="paint1_linear_156_36" x1="262.5" y1="283" x2="306.5" y2="343" gradientUnits="userSpaceOnUse">
<stop stop-color="#7F2DF1" stop-opacity="0.26"/>
<stop offset="1" stop-color="#7F2DF1" stop-opacity="0"/>
</linearGradient>
</defs>
</svg>
