<svg width="412" height="394" viewBox="0 0 412 394" fill="none" xmlns="http://www.w3.org/2000/svg">
<rect width="412" height="394" rx="102" fill="url(#paint0_linear_171_7)"/>
<path d="M408.5 295.5L285.5 258.5L272.5 174L411 216.5V264.5L408.5 295.5Z" fill="url(#paint1_linear_171_7)" fill-opacity="0.7"/>
<path d="M206 119.125C211.901 119.125 217.56 121.469 221.733 125.642C225.906 129.815 228.25 135.474 228.25 141.375V163.625H183.75V141.375C183.75 135.474 186.094 129.815 190.267 125.642C194.44 121.469 200.099 119.125 206 119.125V119.125ZM239.375 163.625V141.375C239.375 132.523 235.859 124.034 229.6 117.775C223.341 111.516 214.852 108 206 108C197.148 108 188.659 111.516 182.4 117.775C176.141 124.034 172.625 132.523 172.625 141.375V163.625H154.38C150.385 163.626 146.522 165.06 143.495 167.667C140.467 170.274 138.476 173.881 137.882 177.832L126.456 254.071C125.864 258.027 126.132 262.064 127.243 265.907C128.353 269.75 130.279 273.308 132.889 276.338C135.5 279.369 138.733 281.801 142.369 283.468C146.005 285.136 149.957 285.999 153.957 286H258.032C262.032 286.001 265.986 285.139 269.624 283.472C273.261 281.805 276.495 279.373 279.107 276.343C281.719 273.312 283.646 269.753 284.757 265.91C285.867 262.066 286.136 258.028 285.544 254.071L274.107 177.832C273.514 173.883 271.523 170.277 268.498 167.671C265.473 165.064 261.613 163.629 257.62 163.625H239.375ZM228.25 174.75V191.438C228.25 192.913 228.836 194.328 229.879 195.371C230.922 196.414 232.337 197 233.812 197C235.288 197 236.703 196.414 237.746 195.371C238.789 194.328 239.375 192.913 239.375 191.438V174.75H257.609C258.941 174.751 260.228 175.23 261.236 176.1C262.244 176.97 262.908 178.172 263.105 179.489L274.541 255.707C274.898 258.081 274.738 260.504 274.073 262.811C273.408 265.118 272.253 267.254 270.687 269.074C269.121 270.893 267.18 272.353 264.998 273.355C262.816 274.356 260.444 274.874 258.043 274.875H153.957C151.556 274.874 149.184 274.356 147.002 273.355C144.82 272.353 142.879 270.893 141.313 269.074C139.747 267.254 138.592 265.118 137.927 262.811C137.261 260.504 137.102 258.081 137.459 255.707L148.895 179.489C149.092 178.174 149.754 176.973 150.76 176.104C151.766 175.234 153.05 174.754 154.38 174.75H172.625V191.438C172.625 192.913 173.211 194.328 174.254 195.371C175.297 196.414 176.712 197 178.187 197C179.663 197 181.078 196.414 182.121 195.371C183.164 194.328 183.75 192.913 183.75 191.438V174.75H228.25Z" fill="white"/>
<defs>
<linearGradient id="paint0_linear_171_7" x1="380" y1="380" x2="40" y2="14" gradientUnits="userSpaceOnUse">
<stop stop-color="#F39580"/>
<stop offset="0.123868" stop-color="#F35628"/>
<stop offset="0.244346" stop-color="#FD5B00"/>
<stop offset="0.830892" stop-color="#FF8F5F"/>
<stop offset="1" stop-color="#FF5C00"/>
</linearGradient>
<linearGradient id="paint1_linear_171_7" x1="265" y1="233" x2="408.5" y2="277.5" gradientUnits="userSpaceOnUse">
<stop stop-color="#A75911"/>
<stop offset="1" stop-color="#FF961C" stop-opacity="0"/>
</linearGradient>
</defs>
</svg>
