<svg width="461" height="394" viewBox="0 0 461 394" fill="none" xmlns="http://www.w3.org/2000/svg">
<rect width="412" height="394" rx="102" fill="url(#paint0_linear_170_61)"/>
<path d="M319 260L409 169V272L338 329.5L319 260Z" fill="url(#paint1_linear_170_61)"/>
<path d="M113.339 103.38C125.424 91.1644 139.816 81.48 155.676 74.891C171.536 68.3019 188.547 64.9399 205.718 65.0008C277.667 65.0008 336.303 123.708 336.369 195.779C336.369 218.863 330.339 241.319 318.955 261.202L337.424 329L268.16 310.817C248.999 321.26 227.533 326.734 205.718 326.74H205.652C133.686 326.74 75.0659 268.033 75 195.895C74.9835 178.703 78.3641 161.677 84.9468 145.799C91.5296 129.921 101.184 115.504 113.355 103.38H113.339ZM205.718 304.597C225.175 304.603 244.276 299.359 261.01 289.417L264.964 287.041L306.054 297.832L295.081 257.687L297.652 253.546C308.529 236.226 314.281 216.174 314.243 195.713C314.243 135.885 265.524 87.0777 205.652 87.0777C191.388 87.0521 177.261 89.8543 164.083 95.3226C150.906 100.791 138.94 108.817 128.875 118.939C118.775 129.021 110.768 141.007 105.316 154.203C99.8645 167.4 97.0755 181.547 97.1103 195.829C97.1762 255.872 145.895 304.597 205.718 304.597Z" fill="white"/>
<path d="M172.289 186.785L158.093 200.986C152.271 206.81 149 214.709 149 222.945C149 231.182 152.271 239.08 158.093 244.904C163.914 250.728 171.811 254 180.044 254C188.277 254 196.173 250.728 201.995 244.904L220.91 225.973C224.42 222.461 227.038 218.157 228.542 213.423C230.046 208.69 230.393 203.664 229.553 198.769C228.714 193.873 226.713 189.251 223.718 185.289C220.724 181.327 216.822 178.142 212.342 176L206.279 182.065C205.663 182.682 205.128 183.374 204.686 184.125C208.147 185.121 211.289 187.003 213.8 189.585C216.312 192.167 218.106 195.36 219.006 198.849C219.906 202.337 219.88 206.001 218.931 209.476C217.982 212.951 216.142 216.119 213.594 218.665L194.69 237.586C190.807 241.471 185.541 243.653 180.049 243.653C174.558 243.653 169.291 241.471 165.408 237.586C161.525 233.702 159.343 228.434 159.343 222.94C159.343 217.447 161.525 212.178 165.408 208.294L173.613 200.096C172.456 195.757 172.008 191.258 172.289 186.775V186.785Z" fill="#FFFDFD"/>
<path d="M192.09 168.02C188.58 171.533 185.962 175.838 184.458 180.572C182.954 185.306 182.607 190.332 183.447 195.228C184.286 200.124 186.287 204.748 189.282 208.71C192.276 212.672 196.178 215.858 200.658 218L208.677 209.967C205.168 209.025 201.97 207.177 199.402 204.607C196.834 202.036 194.988 198.835 194.048 195.325C193.108 191.815 193.109 188.119 194.049 184.609C194.99 181.099 196.837 177.898 199.406 175.329L218.31 156.405C222.193 152.52 227.459 150.338 232.951 150.338C238.442 150.338 243.709 152.52 247.592 156.405C251.475 160.29 253.657 165.559 253.657 171.054C253.657 176.548 251.475 181.817 247.592 185.702L239.387 193.9C240.546 198.248 240.991 202.751 240.711 207.224L254.907 193.021C260.729 187.196 264 179.296 264 171.059C264 162.821 260.729 154.922 254.907 149.097C249.086 143.272 241.189 140 232.956 140C224.723 140 216.827 143.272 211.005 149.097L192.09 168.02Z" fill="white"/>
<defs>
<linearGradient id="paint0_linear_170_61" x1="380" y1="380" x2="40" y2="14" gradientUnits="userSpaceOnUse">
<stop stop-color="#8F00FF"/>
<stop offset="0.583333" stop-color="#2B94FF"/>
<stop offset="1" stop-color="#00E0FF"/>
</linearGradient>
<linearGradient id="paint1_linear_170_61" x1="327" y1="295" x2="410.5" y2="223.5" gradientUnits="userSpaceOnUse">
<stop stop-color="#172B63" stop-opacity="0.5"/>
<stop offset="1" stop-color="#6939FF" stop-opacity="0"/>
</linearGradient>
</defs>
</svg>
