<svg width="412" height="394" viewBox="0 0 412 394" fill="none" xmlns="http://www.w3.org/2000/svg">
<rect width="412" height="394" rx="102" fill="url(#paint0_linear_168_26)"/>
<path d="M113.339 103.38C125.424 91.1644 139.816 81.48 155.676 74.891C171.536 68.3019 188.547 64.9399 205.718 65.0008C277.667 65.0008 336.303 123.708 336.369 195.779C336.369 218.863 330.339 241.319 318.955 261.202L337.424 329L268.16 310.817C248.999 321.26 227.533 326.734 205.718 326.74H205.652C133.686 326.74 75.0659 268.033 75 195.895C74.9835 178.703 78.3641 161.677 84.9468 145.799C91.5296 129.921 101.184 115.504 113.355 103.38H113.339ZM205.718 304.597C225.175 304.603 244.276 299.359 261.01 289.417L264.964 287.041L306.054 297.832L295.081 257.687L297.652 253.546C308.529 236.226 314.281 216.174 314.243 195.713C314.243 135.885 265.524 87.0777 205.652 87.0777C191.388 87.0521 177.261 89.8543 164.083 95.3226C150.906 100.791 138.94 108.817 128.875 118.939C118.775 129.021 110.768 141.007 105.316 154.203C99.8645 167.4 97.0755 181.547 97.1103 195.829C97.1762 255.872 145.895 304.597 205.718 304.597Z" fill="white"/>
<path d="M238.157 210.045C240.772 211.02 254.681 217.886 257.496 219.305C260.327 220.724 262.228 221.426 262.928 222.63C263.643 223.82 263.643 229.496 261.299 236.147C258.912 242.784 247.605 248.833 242.173 249.665C237.285 250.367 231.152 250.697 224.363 248.518C220.232 247.199 214.943 245.465 208.225 242.526C179.794 230.199 161.269 201.545 159.868 199.638L159.845 199.607C158.333 197.592 148.29 184.199 148.29 170.267C148.29 156.263 155.565 149.397 158.167 146.559C159.116 145.478 160.277 144.605 161.579 143.996C162.88 143.387 164.293 143.054 165.728 143.018C167.629 143.018 169.531 143.018 171.16 143.118C172.904 143.19 175.234 142.416 177.521 147.992C179.908 153.64 185.554 167.644 186.269 169.063C186.969 170.482 187.412 172.117 186.483 174.037C185.554 175.929 185.083 177.133 183.653 178.768C182.238 180.402 180.666 182.466 179.422 183.727C178.007 185.146 176.535 186.666 178.164 189.504C179.851 192.328 185.497 201.645 193.931 209.17C204.737 218.875 213.871 221.856 216.687 223.29C219.517 224.694 221.204 224.479 222.833 222.573C224.463 220.724 229.895 214.288 231.796 211.464C233.654 208.626 235.555 209.113 238.157 210.045Z" fill="white"/>
<defs>
<linearGradient id="paint0_linear_168_26" x1="380" y1="380" x2="40" y2="14" gradientUnits="userSpaceOnUse">
<stop stop-color="#0059FF"/>
<stop offset="0.583333" stop-color="#0B84FE"/>
<stop offset="1" stop-color="#0ABFFE"/>
</linearGradient>
</defs>
</svg>
