<svg width="412" height="394" viewBox="0 0 412 394" fill="none" xmlns="http://www.w3.org/2000/svg">
<rect width="412" height="394" rx="102" fill="url(#paint0_linear_156_4)"/>
<circle cx="206.5" cy="197.5" r="103.5" fill="url(#paint1_linear_156_4)"/>
<circle cx="202.5" cy="193.5" r="99.5" fill="#D9D9D9"/>
<circle cx="202.5" cy="193.5" r="99.5" fill="url(#paint2_linear_156_4)"/>
<circle cx="202.5" cy="193.5" r="99.5" fill="url(#paint3_linear_156_4)"/>
<rect x="219.888" y="136" width="137.81" height="134" transform="rotate(38.2115 219.888 136)" fill="url(#paint4_linear_156_4)"/>
<path fill-rule="evenodd" clip-rule="evenodd" d="M227.786 234.924C239.079 222.931 246 206.774 246 189C246 151.997 216.003 122 179 122C141.997 122 112 151.997 112 189C112 226.003 141.997 256 179 256C190.783 256 201.856 252.958 211.476 247.617L233.866 257.264L227.786 234.924Z" fill="white"/>
<circle cx="148" cy="190" r="10" fill="url(#paint5_radial_156_4)"/>
<circle cx="179" cy="190" r="10" fill="url(#paint6_radial_156_4)"/>
<circle cx="210" cy="190" r="10" fill="url(#paint7_radial_156_4)"/>
<defs>
<linearGradient id="paint0_linear_156_4" x1="380" y1="380" x2="40" y2="14" gradientUnits="userSpaceOnUse">
<stop stop-color="#E9F9FE"/>
<stop offset="0.583333" stop-color="#E1F0FF"/>
<stop offset="1" stop-color="#FEFFFF"/>
</linearGradient>
<linearGradient id="paint1_linear_156_4" x1="206.5" y1="94" x2="206.5" y2="301" gradientUnits="userSpaceOnUse">
<stop stop-color="#F7972D"/>
<stop offset="1" stop-color="#FF783D"/>
</linearGradient>
<linearGradient id="paint2_linear_156_4" x1="202.5" y1="94" x2="202.5" y2="293" gradientUnits="userSpaceOnUse">
<stop stop-color="#D468EA"/>
<stop offset="1" stop-color="#9583FD"/>
</linearGradient>
<linearGradient id="paint3_linear_156_4" x1="202.5" y1="94" x2="202.5" y2="293" gradientUnits="userSpaceOnUse">
<stop stop-color="#D468EA"/>
<stop offset="1" stop-color="#9583FD"/>
</linearGradient>
<linearGradient id="paint4_linear_156_4" x1="220.152" y1="203.245" x2="344.307" y2="204.138" gradientUnits="userSpaceOnUse">
<stop stop-color="#3B1C49" stop-opacity="0.38"/>
<stop offset="0.619792" stop-color="#301E4F" stop-opacity="0"/>
<stop offset="1" stop-color="#291F53" stop-opacity="0"/>
</linearGradient>
<radialGradient id="paint5_radial_156_4" cx="0" cy="0" r="1" gradientUnits="userSpaceOnUse" gradientTransform="translate(148 190) rotate(90) scale(10)">
<stop stop-color="#FE5661"/>
<stop offset="1" stop-color="#FE8B27"/>
</radialGradient>
<radialGradient id="paint6_radial_156_4" cx="0" cy="0" r="1" gradientUnits="userSpaceOnUse" gradientTransform="translate(179 190) rotate(90) scale(10)">
<stop stop-color="#FE5661"/>
<stop offset="1" stop-color="#FE8B27"/>
</radialGradient>
<radialGradient id="paint7_radial_156_4" cx="0" cy="0" r="1" gradientUnits="userSpaceOnUse" gradientTransform="translate(210 190) rotate(90) scale(10)">
<stop stop-color="#FE5661"/>
<stop offset="1" stop-color="#FE8B27"/>
</radialGradient>
</defs>
</svg>
