<svg xmlns="http://www.w3.org/2000/svg" viewBox="0 0 64 64"><defs><style>.cls-1,.cls-2,.cls-4,.cls-7{fill:#a6c7e2;}.cls-1{opacity:0.8;}.cls-2,.cls-6{opacity:0.3;}.cls-3{fill:#f96363;}.cls-4,.cls-8{opacity:0.5;}.cls-5{fill:#e82c2c;}</style></defs><title>Accounting</title><g id="Accounting"><path class="cls-1" d="M41,16H38v4h2a1,1,0,0,1,0,2H20a1,1,0,0,1,0-2h2V16H19a4,4,0,0,0-4,4V37H30a2,2,0,0,1,2,2V49a2,2,0,0,1-2,2H15v1a4,4,0,0,0,4,4H41a4,4,0,0,0,4-4V20A4,4,0,0,0,41,16ZM40,50a1,1,0,0,1-1,1H37a1,1,0,0,1-1-1V49a1,1,0,0,1,1-1h2a1,1,0,0,1,1,1Zm0-6a1,1,0,0,1-1,1H37a1,1,0,0,1-1-1V43a1,1,0,0,1,1-1h2a1,1,0,0,1,1,1Zm0-6a1,1,0,0,1-1,1H37a1,1,0,0,1-1-1V37a1,1,0,0,1,1-1h2a1,1,0,0,1,1,1Zm0-8a1,1,0,0,1-1,1H21a1,1,0,0,1-1-1V26a1,1,0,0,1,1-1H39a1,1,0,0,1,1,1Z"/><path class="cls-2" d="M44,8a6,6,0,0,0-6,6v6H22V14a6,6,0,0,1,6-6Z"/><path class="cls-2" d="M56,43v1a3,3,0,0,1-6,0V43Z"/><rect class="cls-3" x="8" y="37" width="24" height="14" rx="2" ry="2"/><path class="cls-4" d="M53,47H45V20a4,4,0,0,0-4-4H38V14a6,6,0,0,1,12,0V44A3,3,0,0,0,53,47Z"/><circle class="cls-5" cx="20" cy="44" r="3"/><circle class="cls-5" cx="27" cy="44" r="1"/><circle class="cls-5" cx="13" cy="44" r="1"/><g class="cls-6"><rect class="cls-7" x="36" y="36" width="4" height="3" rx="1" ry="1"/></g><g class="cls-6"><rect class="cls-7" x="36" y="42" width="4" height="3" rx="1" ry="1"/></g><g class="cls-6"><rect class="cls-7" x="36" y="48" width="4" height="3" rx="1" ry="1"/></g><rect class="cls-2" x="20" y="25" width="20" height="6" rx="1" ry="1"/><g class="cls-8"><path class="cls-7" d="M40,22H20a1,1,0,0,1,0-2H40a1,1,0,0,1,0,2Z"/></g></g></svg>