<svg xmlns="http://www.w3.org/2000/svg" viewBox="0 0 64 64"><defs><style>.cls-1,.cls-2,.cls-5{fill:#a6c7e2;}.cls-1{opacity:0.5;}.cls-2{opacity:0.3;}.cls-3{fill:#f96363;}.cls-4{fill:#e82c2c;}.cls-6{opacity:0.8;}</style></defs><title>Approve Stamp document</title><g id="Approve_Stamp_document" data-name="Approve Stamp document"><path class="cls-1" d="M44,53H10a5,5,0,0,1-5-5V46H39v2A5,5,0,0,0,44,53Z"/><path class="cls-1" d="M59,16v2H49V16a5,5,0,0,1,10,0Z"/><path class="cls-2" d="M20,11a5,5,0,0,0-5,5V46H39v2a5,5,0,0,0,10,0V45H43V42H42v-.23A3.76,3.76,0,0,1,45.77,38,2.23,2.23,0,0,0,48,35.77V34.58a23.11,23.11,0,0,0-1.75-8.18A4.08,4.08,0,0,1,46,25a4,4,0,0,1,3-3.87V16a5,5,0,0,1,5-5ZM43,23H21a1,1,0,0,1,0-2H43a1,1,0,0,1,0,2Zm0-5H21a1,1,0,0,1,0-2H43a1,1,0,0,1,0,2Z"/><rect class="cls-3" x="43" y="42" width="14" height="3"/><path class="cls-4" d="M58,41.77V42H42v-.23A3.76,3.76,0,0,1,45.77,38,2.23,2.23,0,0,0,48,35.77V34.58a23.11,23.11,0,0,0-1.75-8.18A4.08,4.08,0,0,1,46,25a4,4,0,0,1,3-3.87,4,4,0,0,1,2,0A4,4,0,0,1,53.88,24a4,4,0,0,1-.09,2.27A28.23,28.23,0,0,0,52,35.33v.44A2.23,2.23,0,0,0,54.23,38,3.77,3.77,0,0,1,58,41.77Z"/><path class="cls-5" d="M30,43a8,8,0,0,1,0-16,7.83,7.83,0,0,1,5,1.73,1,1,0,1,1-1.26,1.56A5.82,5.82,0,0,0,30,29a6,6,0,1,0,6,6,1,1,0,0,1,.83-1.16,1,1,0,0,1,1.15.82A1.94,1.94,0,0,1,38,35,8,8,0,0,1,30,43Z"/><path class="cls-5" d="M30,39a1,1,0,0,1-.71-.29l-3-3a1,1,0,0,1,1.42-1.42L30,36.59l8.29-8.3a1,1,0,0,1,1.42,1.42l-9,9A1,1,0,0,1,30,39Z"/><g class="cls-6"><path class="cls-5" d="M43,18H21a1,1,0,0,1,0-2H43a1,1,0,0,1,0,2Z"/></g><g class="cls-6"><path class="cls-5" d="M43,23H21a1,1,0,0,1,0-2H43a1,1,0,0,1,0,2Z"/></g></g></svg>