<svg xmlns="http://www.w3.org/2000/svg" viewBox="0 0 64 64"><defs><style>.cls-1,.cls-2,.cls-3{fill:#a6c7e2;}.cls-1{opacity:0.3;}.cls-2{opacity:0.5;}.cls-3{opacity:0.8;}.cls-4{fill:#e82c2c;}.cls-5{fill:#ff8e8e;}</style></defs><title>bank building</title><g id="bank_building" data-name="bank building"><polygon class="cls-1" points="56 23 8 23 8 17 32 8 56 17 56 23"/><rect class="cls-2" x="10" y="23" width="44" height="4"/><rect class="cls-1" x="8" y="51" width="48" height="5"/><rect class="cls-2" x="10" y="47" width="44" height="4"/><path class="cls-3" d="M12,27H22a0,0,0,0,1,0,0v2a2,2,0,0,1-2,2H14a2,2,0,0,1-2-2V27A0,0,0,0,1,12,27Z"/><path class="cls-3" d="M14,43h6a2,2,0,0,1,2,2v2a0,0,0,0,1,0,0H12a0,0,0,0,1,0,0V45A2,2,0,0,1,14,43Z"/><rect class="cls-3" x="14" y="31" width="6" height="12"/><path class="cls-3" d="M42,27H52a0,0,0,0,1,0,0v2a2,2,0,0,1-2,2H44a2,2,0,0,1-2-2V27A0,0,0,0,1,42,27Z"/><path class="cls-3" d="M44,43h6a2,2,0,0,1,2,2v2a0,0,0,0,1,0,0H42a0,0,0,0,1,0,0V45A2,2,0,0,1,44,43Z"/><rect class="cls-3" x="44" y="31" width="6" height="12"/><circle class="cls-4" cx="32" cy="16" r="4"/><path class="cls-5" d="M32,32h0a6,6,0,0,1,6,6v9a0,0,0,0,1,0,0H26a0,0,0,0,1,0,0V38A6,6,0,0,1,32,32Z"/></g></svg>