<svg xmlns="http://www.w3.org/2000/svg" viewBox="0 0 64 64"><defs><style>.cls-1,.cls-2,.cls-3{fill:#a6c7e2;}.cls-1{opacity:0.3;}.cls-2{opacity:0.5;}.cls-3{opacity:0.8;}.cls-4{fill:#e82c2c;}.cls-5{fill:#ff8e8e;}</style></defs><title>bank insurance</title><g id="bank_insurance" data-name="bank insurance"><polygon class="cls-1" points="56 23 8 23 8 17 32 8 56 17 56 23"/><rect class="cls-2" x="10" y="23" width="44" height="4"/><path class="cls-1" d="M42.05,53H8V48H38.79A13.15,13.15,0,0,0,42.05,53Z"/><path class="cls-2" d="M38.79,48H10V44H38A13,13,0,0,0,38.79,48Z"/><path class="cls-3" d="M12,27H22a0,0,0,0,1,0,0v2a2,2,0,0,1-2,2H14a2,2,0,0,1-2-2V27A0,0,0,0,1,12,27Z"/><path class="cls-3" d="M14,40h6a2,2,0,0,1,2,2v2a0,0,0,0,1,0,0H12a0,0,0,0,1,0,0V42A2,2,0,0,1,14,40Z"/><rect class="cls-3" x="14" y="31" width="6" height="9"/><path class="cls-3" d="M42,27H52a0,0,0,0,1,0,0v2a2,2,0,0,1-2,2H44a2,2,0,0,1-2-2V27A0,0,0,0,1,42,27Z"/><path class="cls-3" d="M50,31v4.84a13.76,13.76,0,0,1-2.64-1.49L46.88,34h0A13.87,13.87,0,0,1,44,35.75V31Z"/><circle class="cls-3" cx="32" cy="16" r="4"/><path class="cls-4" d="M56,37v6.51A13.2,13.2,0,0,1,47,56a13.17,13.17,0,0,1-9-12c0-.16,0-.33,0-.49V37h.21A14,14,0,0,0,44,35.75,13.87,13.87,0,0,0,46.87,34h0l.48.35A13.76,13.76,0,0,0,50,35.84,13.92,13.92,0,0,0,55.56,37Z"/><path class="cls-5" d="M47.5,49H45a1,1,0,0,1,0-2h2.5a.5.5,0,0,0,0-1h-1a2.5,2.5,0,0,1,0-5H49a1,1,0,0,1,0,2H46.5a.5.5,0,0,0,0,1h1a2.5,2.5,0,0,1,0,5Z"/><path class="cls-5" d="M47,43a1,1,0,0,1-1-1V41a1,1,0,0,1,2,0v1A1,1,0,0,1,47,43Z"/><path class="cls-5" d="M47,50a1,1,0,0,1-1-1V48a1,1,0,0,1,2,0v1A1,1,0,0,1,47,50Z"/></g></svg>