<svg xmlns="http://www.w3.org/2000/svg" viewBox="0 0 64 64"><defs><style>.cls-1,.cls-3,.cls-4,.cls-5{fill:#a6c7e2;}.cls-1{opacity:0.3;}.cls-2{fill:#e82c2c;}.cls-3{opacity:0.5;}.cls-4{opacity:0.8;}.cls-6{fill:#ff8e8e;}</style></defs><title>briefcase</title><g id="briefcase"><path class="cls-1" d="M48,16H12a4,4,0,0,0-4,4v8a4,4,0,0,0,4,4H27V30a3,3,0,0,1,6,0v2H48a4,4,0,0,0,4-4V20A4,4,0,0,0,48,16Z"/><path class="cls-2" d="M56,47a9,9,0,0,1-17.48,3,8.25,8.25,0,0,1-.3-1A9.36,9.36,0,0,1,38,47a9,9,0,0,1,9-9,9,9,0,0,1,5,1.53A9,9,0,0,1,56,47Z"/><path class="cls-3" d="M52,28V39.53A9,9,0,0,0,47,38a9,9,0,0,0-9,9,9.36,9.36,0,0,0,.22,2,8.25,8.25,0,0,0,.3,1H12a4,4,0,0,1-4-4V28a4,4,0,0,0,4,4H27v2a3,3,0,0,0,6,0V32H48A4,4,0,0,0,52,28Z"/><path class="cls-4" d="M33,30v4a3,3,0,0,1-6,0V30a3,3,0,0,1,6,0Z"/><path class="cls-5" d="M39,13v3H37V13a2,2,0,0,0-2-2H25a2,2,0,0,0-2,2v3H21V13a4,4,0,0,1,4-4H35A4,4,0,0,1,39,13Z"/><path class="cls-6" d="M47.5,51H45a1,1,0,0,1,0-2h2.5a.5.5,0,0,0,0-1h-1a2.5,2.5,0,0,1,0-5H49a1,1,0,0,1,0,2H46.5a.5.5,0,0,0,0,1h1a2.5,2.5,0,0,1,0,5Z"/><path class="cls-6" d="M47,45a1,1,0,0,1-1-1V43a1,1,0,0,1,2,0v1A1,1,0,0,1,47,45Z"/><path class="cls-6" d="M47,52a1,1,0,0,1-1-1V50a1,1,0,0,1,2,0v1A1,1,0,0,1,47,52Z"/></g></svg>