<svg xmlns="http://www.w3.org/2000/svg" viewBox="0 0 64 64"><defs><style>.cls-1,.cls-2,.cls-4{fill:#a6c7e2;}.cls-1{opacity:0.8;}.cls-2,.cls-3{opacity:0.3;}.cls-5{fill:#ff8e8e;}.cls-6{fill:#e82c2c;}.cls-7{fill:#f96363;}.cls-8{opacity:0.5;}</style></defs><title>card payment</title><g id="card_payment" data-name="card payment"><path class="cls-1" d="M35,16H32v4h2a1,1,0,0,1,0,2H14a1,1,0,0,1,0-2h2V16H13a5,5,0,0,0-5,5v7.06L10,43v8a5,5,0,0,0,5,5H33a5,5,0,0,0,5-5V43.06L38.94,36l.53-4L40,28V21A5,5,0,0,0,35,16ZM19,51a1,1,0,0,1-1,1H16a1,1,0,0,1-1-1V50a1,1,0,0,1,1-1h2a1,1,0,0,1,1,1Zm0-6a1,1,0,0,1-1,1H16a1,1,0,0,1-1-1V44a1,1,0,0,1,1-1h2a1,1,0,0,1,1,1Zm0-6a1,1,0,0,1-1,1H16a1,1,0,0,1-1-1V38a1,1,0,0,1,1-1h2a1,1,0,0,1,1,1Zm7,12a1,1,0,0,1-1,1H23a1,1,0,0,1-1-1V50a1,1,0,0,1,1-1h2a1,1,0,0,1,1,1Zm0-6a1,1,0,0,1-1,1H23a1,1,0,0,1-1-1V44a1,1,0,0,1,1-1h2a1,1,0,0,1,1,1Zm0-6a1,1,0,0,1-1,1H23a1,1,0,0,1-1-1V38a1,1,0,0,1,1-1h2a1,1,0,0,1,1,1Zm7,12a1,1,0,0,1-1,1H30a1,1,0,0,1-1-1V50a1,1,0,0,1,1-1h2a1,1,0,0,1,1,1Zm0-6a1,1,0,0,1-1,1H30a1,1,0,0,1-1-1V44a1,1,0,0,1,1-1h2a1,1,0,0,1,1,1Zm0-6a1,1,0,0,1-1,1H30a1,1,0,0,1-1-1V38a1,1,0,0,1,1-1h2a1,1,0,0,1,1,1Zm1-7a1,1,0,0,1-1,1H15a1,1,0,0,1-1-1V26a1,1,0,0,1,1-1H33a1,1,0,0,1,1,1Z"/><rect class="cls-2" x="14" y="25" width="20" height="8" rx="1" ry="1"/><g class="cls-3"><rect class="cls-4" x="22" y="37" width="4" height="3" rx="1" ry="1"/></g><g class="cls-3"><rect class="cls-4" x="22" y="43" width="4" height="3" rx="1" ry="1"/></g><g class="cls-3"><rect class="cls-4" x="22" y="49" width="4" height="3" rx="1" ry="1"/></g><g class="cls-3"><rect class="cls-4" x="29" y="37" width="4" height="3" rx="1" ry="1"/></g><g class="cls-3"><rect class="cls-4" x="29" y="43" width="4" height="3" rx="1" ry="1"/></g><g class="cls-3"><rect class="cls-4" x="29" y="49" width="4" height="3" rx="1" ry="1"/></g><g class="cls-3"><rect class="cls-4" x="15" y="37" width="4" height="3" rx="1" ry="1"/></g><g class="cls-3"><rect class="cls-4" x="15" y="43" width="4" height="3" rx="1" ry="1"/></g><g class="cls-3"><rect class="cls-4" x="15" y="49" width="4" height="3" rx="1" ry="1"/></g><path class="cls-2" d="M32,8V20H16V8a2.84,2.84,0,0,0,4,0h0a2.81,2.81,0,0,0,4,0h0a2.82,2.82,0,0,0,4,0h0a2.82,2.82,0,0,0,4,0Z"/><path class="cls-5" d="M56,29V43a2,2,0,0,1-2,2H38V43.06L40,28V27H54A2,2,0,0,1,56,29Z"/><polygon class="cls-6" points="56 32 56 36 38.94 36 39.47 32 56 32"/><path class="cls-7" d="M51,42H47a1,1,0,0,1,0-2h4a1,1,0,0,1,0,2Z"/><g class="cls-8"><path class="cls-4" d="M34,22H14a1,1,0,0,1,0-2H34a1,1,0,0,1,0,2Z"/></g></g></svg>