<svg xmlns="http://www.w3.org/2000/svg" viewBox="0 0 64 64"><defs><style>.cls-1{opacity:0.5;}.cls-2,.cls-3,.cls-5{fill:#a6c7e2;}.cls-3{opacity:0.3;}.cls-4{fill:#f96363;}.cls-5,.cls-7{opacity:0.8;}.cls-6{fill:#e82c2c;}</style></defs><title>ATM Cash Machine</title><g id="ATM_Cash_Machine" data-name="ATM Cash Machine"><g class="cls-1"><path class="cls-2" d="M56,49H54V13a5,5,0,0,0-5-5H15a5,5,0,0,0-5,5V49H8a1,1,0,0,0,0,2H25a1,1,0,0,0,0-2V41H39v8a1,1,0,0,0,0,2H56a1,1,0,0,0,0-2ZM45,32h4a1,1,0,0,1,1,1v2a1,1,0,0,1-1,1H45a1,1,0,0,1-1-1V33A1,1,0,0,1,45,32Zm-1-5V25a1,1,0,0,1,1-1h4a1,1,0,0,1,1,1v2a1,1,0,0,1-1,1H45A1,1,0,0,1,44,27Zm1-11h4a1,1,0,0,1,1,1v2a1,1,0,0,1-1,1H45a1,1,0,0,1-1-1V17A1,1,0,0,1,45,16ZM21,11H43a1,1,0,0,1,0,2H21a1,1,0,0,1,0-2ZM38,36H17a2,2,0,0,1-2-2V18a2,2,0,0,1,2-2H38a2,2,0,0,1,2,2V34A2,2,0,0,1,38,36Z"/></g><rect class="cls-3" x="15" y="16" width="25" height="20" rx="2" ry="2"/><path class="cls-4" d="M39,41V54a2,2,0,0,1-2,2H27a2,2,0,0,1-2-2V41Z"/><path class="cls-5" d="M28,25H27a.5.5,0,0,1,0-1h2.5a1,1,0,0,0,0-2h-1a1,1,0,0,0-2,0v.05A2.5,2.5,0,0,0,27,27h1a.5.5,0,0,1,0,1H25.5a1,1,0,0,0,0,2h1a1,1,0,0,0,2,0V30A2.5,2.5,0,0,0,28,25Z"/><circle class="cls-6" cx="32" cy="44" r="3"/><circle class="cls-6" cx="32" cy="51" r="1"/><rect class="cls-5" x="21" y="41" width="4" height="4"/><rect class="cls-5" x="39" y="41" width="4" height="4"/><rect class="cls-5" x="44" y="16" width="6" height="4" rx="1" ry="1"/><rect class="cls-5" x="44" y="24" width="6" height="4" rx="1" ry="1"/><rect class="cls-5" x="44" y="32" width="6" height="4" rx="1" ry="1"/><g class="cls-7"><path class="cls-2" d="M43,13H21a1,1,0,0,1,0-2H43a1,1,0,0,1,0,2Z"/></g></g></svg>