<svg xmlns="http://www.w3.org/2000/svg" viewBox="0 0 64 64"><defs><style>.cls-1,.cls-2,.cls-3,.cls-8{fill:#a6c7e2;}.cls-1,.cls-7{opacity:0.8;}.cls-2{opacity:0.5;}.cls-3{opacity:0.3;}.cls-4{fill:#e82c2c;}.cls-5{fill:#f96363;}.cls-6{fill:#ff8e8e;}</style></defs><title>Cash Money</title><g id="Cash_Money" data-name="Cash Money"><path class="cls-1" d="M56,26V37a1,1,0,0,0-1-1H51V31a4,4,0,0,1-4-4H17a4,4,0,0,1-4,4V43a4,4,0,0,1,4,4H30.29a7,7,0,0,0,.39,5H12a4,4,0,0,1-4-4V26a4,4,0,0,1,4-4H52a3.08,3.08,0,0,1,.53,0A4,4,0,0,1,56,26Z"/><path class="cls-2" d="M52.53,22A3.08,3.08,0,0,0,52,22H46.74l-3.29-5.7A4,4,0,0,1,38,14.84L25.59,22h-10L39.82,8a4,4,0,0,1,5.46,1.46Z"/><path class="cls-3" d="M46.74,22H25.59L38,14.84a4,4,0,0,0,5.46,1.46Z"/><path class="cls-4" d="M44,49a6.91,6.91,0,0,1-.29,2,5.76,5.76,0,0,1-.39,1A6.7,6.7,0,0,1,42,53.89,7,7,0,0,1,30.68,52a7,7,0,0,1-.39-5,7,7,0,0,1,3.93-4.43l.17-.07A7,7,0,0,1,37,42a7,7,0,0,1,5,2.11A6.7,6.7,0,0,1,43.32,46a5.76,5.76,0,0,1,.39,1A6.91,6.91,0,0,1,44,49Z"/><path class="cls-4" d="M56,52v3a1,1,0,0,1-1,1H43a1,1,0,0,1-1-1V53.89A6.7,6.7,0,0,0,43.32,52a5.76,5.76,0,0,0,.39-1H55A1,1,0,0,1,56,52Z"/><path class="cls-5" d="M56,47v3a1,1,0,0,1-1,1H43.71a7,7,0,0,0,0-4,5.76,5.76,0,0,0-.39-1H55A1,1,0,0,1,56,47Z"/><path class="cls-6" d="M56,42v3a1,1,0,0,1-1,1H43.32A6.7,6.7,0,0,0,42,44.11V42a1,1,0,0,1,1-1H55A1,1,0,0,1,56,42Z"/><rect class="cls-4" x="42" y="36" width="14" height="5" rx="1" ry="1"/><path class="cls-6" d="M37.5,48h-1a.5.5,0,0,1,0-1H39a1,1,0,0,0,0-2H38a1,1,0,0,0-2,0v0a2.5,2.5,0,0,0,.5,5h1a.5.5,0,0,1,0,1H35a1,1,0,0,0,0,2h1a1,1,0,0,0,2,0v0a2.5,2.5,0,0,0-.5-5Z"/><path class="cls-3" d="M47,27H17a4,4,0,0,1-4,4V43a4,4,0,0,1,4,4H30.29a7,7,0,0,1,3.93-4.43A5.89,5.89,0,0,1,32,43a6,6,0,1,1,2.39-.5A7,7,0,0,1,37,42a7,7,0,0,1,5,2.11V42a1,1,0,0,1,1-1,1,1,0,0,1-1-1V37a1,1,0,0,1,1-1h8V31A4,4,0,0,1,47,27ZM20,39a2,2,0,1,1,2-2A2,2,0,0,1,20,39Z"/><path class="cls-1" d="M38,37a6,6,0,0,1-3.61,5.5l-.17.07A5.89,5.89,0,0,1,32,43a6,6,0,1,1,6-6Z"/><g class="cls-7"><path class="cls-8" d="M20,39a2,2,0,1,1,2-2A2,2,0,0,1,20,39Zm0-2h0Zm0,0h0Zm0,0h0Zm0,0h0Zm0,0h0Zm0,0h0Zm0,0h0Zm0,0h0Z"/></g></g></svg>