<svg xmlns="http://www.w3.org/2000/svg" viewBox="0 0 64 64"><defs><style>.cls-1,.cls-2,.cls-6{fill:#a6c7e2;}.cls-1{opacity:0.8;}.cls-2{opacity:0.3;}.cls-3{fill:#e82c2c;}.cls-4{fill:#ff8e8e;}.cls-5{fill:#f96363;}.cls-6{opacity:0.5;}</style></defs><title>cheque</title><g id="cheque"><path class="cls-1" d="M54,24H8v0a4.52,4.52,0,0,1,0,5.31v0H8a4.55,4.55,0,0,1,0,5.31H8A4.54,4.54,0,0,1,8,40a4.43,4.43,0,0,1,.86,2.67A4.38,4.38,0,0,1,8,45.34H8a4.54,4.54,0,0,1,0,5.32A4.55,4.55,0,0,1,8,56H54a2.16,2.16,0,0,0,2-2.29V26.29A2.16,2.16,0,0,0,54,24ZM50,48a3,3,0,0,0-3,3H16a3,3,0,0,0-3-3V32a3,3,0,0,0,3-3H47a3,3,0,0,0,3,3Z"/><path class="cls-2" d="M50,32V48a3,3,0,0,0-3,3H16a3,3,0,0,0-3-3V32a3,3,0,0,0,3-3H47A3,3,0,0,0,50,32Z"/><path class="cls-3" d="M20.5,44H18a1,1,0,0,1,0-2h2.5a.5.5,0,0,0,0-1h-1a2.5,2.5,0,0,1,0-5H22a1,1,0,0,1,0,2H19.5a.5.5,0,0,0,0,1h1a2.5,2.5,0,0,1,0,5Z"/><path class="cls-3" d="M20,38a1,1,0,0,1-1-1V36a1,1,0,0,1,2,0v1A1,1,0,0,1,20,38Z"/><path class="cls-3" d="M20,45a1,1,0,0,1-1-1V43a1,1,0,0,1,2,0v1A1,1,0,0,1,20,45Z"/><path class="cls-4" d="M45,36H28a1,1,0,0,1,0-2H45a1,1,0,0,1,0,2Z"/><path class="cls-5" d="M27.37,46a1,1,0,0,1-.89-.55,1,1,0,0,1,.44-1.34A14.92,14.92,0,0,0,31.83,40c.23-.34.91-1.37,1.87-.94.54.23,1.09.48.48,3.68l.57-.37a1,1,0,0,1,1,0,1,1,0,0,1,.53.88v.28l3-1.21a1,1,0,0,1,1,1.69H45a1,1,0,0,1,0,2H39.71c-.41,0-1.61,0-2-.87l-2,.8a1,1,0,0,1-1.37-.83l-1.09.73a1,1,0,0,1-1.53-1.07c.16-.64.31-1.33.44-2a18.49,18.49,0,0,1-4.31,3.11A.91.91,0,0,1,27.37,46Z"/><path class="cls-6" d="M49,14v2a2,2,0,0,1-2,2H15L8,15.09,15,12H47a2,2,0,0,1,2,2Z"/><path class="cls-1" d="M56,15a2,2,0,0,1-2,2H48.73A2,2,0,0,0,49,16V14a2,2,0,0,0-.27-1H54A2,2,0,0,1,56,15Z"/><path class="cls-2" d="M46,12H43.58l-3-3H31a1,1,0,0,1,0-2H41a1,1,0,0,1,.71.29l4,4A1,1,0,0,1,46,12Z"/></g></svg>