<svg xmlns="http://www.w3.org/2000/svg" viewBox="0 0 64 64"><defs><style>.cls-1,.cls-2,.cls-3{fill:#a6c7e2;}.cls-1{opacity:0.8;}.cls-2{opacity:0.3;}.cls-3{opacity:0.5;}.cls-4{fill:#f96363;}.cls-5{fill:#e82c2c;}.cls-6{fill:#ff8e8e;}</style></defs><title>coin</title><g id="coin"><path class="cls-1" d="M28,54.14V55a2,2,0,0,1-2,2H10a2,2,0,0,1-2-2V52a2,2,0,0,1,2-2H25.46a10,10,0,0,0,2.47,4.07Z"/><path class="cls-2" d="M29,38v1a8.4,8.4,0,0,0-1.07.92A9.79,9.79,0,0,0,25.84,43H11a2,2,0,0,1-2-2V38a2,2,0,0,1,2-2H27A2,2,0,0,1,29,38Z"/><path class="cls-3" d="M25.46,50H14a2,2,0,0,1-2-2V45a2,2,0,0,1,2-2H25.84A9.94,9.94,0,0,0,25.46,50Z"/><path class="cls-3" d="M54,52v3a2,2,0,0,1-2,2H36a1.55,1.55,0,0,1-.31,0,10,10,0,0,0,8.85-7H52A2,2,0,0,1,54,52Z"/><path class="cls-1" d="M56,45v3a2,2,0,0,1-2,2H44.54a9.94,9.94,0,0,0-.38-7H54A2,2,0,0,1,56,45Z"/><path class="cls-3" d="M55,38v3a2,2,0,0,1-2,2H44.16a9.79,9.79,0,0,0-2.09-3.07A9.94,9.94,0,0,0,35.27,37,2,2,0,0,1,37,36H53A2,2,0,0,1,55,38Z"/><rect class="cls-1" x="34" y="29" width="20" height="7" rx="2" ry="2"/><rect class="cls-3" x="36" y="22" width="20" height="7" rx="2" ry="2"/><rect class="cls-2" x="32" y="15" width="20" height="7" rx="2" ry="2"/><rect class="cls-2" x="35" y="8" width="20" height="7" rx="2" ry="2"/><circle class="cls-4" cx="18" cy="26" r="10"/><circle class="cls-5" cx="18" cy="26" r="7"/><path class="cls-6" d="M18.5,30H16a1,1,0,0,1,0-2h2.5a.5.5,0,0,0,0-1h-1a2.5,2.5,0,0,1,0-5H20a1,1,0,0,1,0,2H17.5a.5.5,0,0,0,0,1h1a2.5,2.5,0,0,1,0,5Z"/><path class="cls-6" d="M18,24a1,1,0,0,1-1-1V22a1,1,0,0,1,2,0v1A1,1,0,0,1,18,24Z"/><path class="cls-6" d="M18,31a1,1,0,0,1-1-1V29a1,1,0,0,1,2,0v1A1,1,0,0,1,18,31Z"/><path class="cls-4" d="M44.54,50A10,10,0,0,1,28,54.14l-.07-.07A10,10,0,0,1,25.84,43a9.79,9.79,0,0,1,2.09-3.07A8.4,8.4,0,0,1,29,39a9.83,9.83,0,0,1,6.27-2,9.94,9.94,0,0,1,6.8,2.92A9.79,9.79,0,0,1,44.16,43,9.94,9.94,0,0,1,44.54,50Z"/><circle class="cls-5" cx="35" cy="47" r="7"/><path class="cls-6" d="M35.5,51H33a1,1,0,0,1,0-2h2.5a.5.5,0,0,0,0-1h-1a2.5,2.5,0,0,1,0-5H37a1,1,0,0,1,0,2H34.5a.5.5,0,0,0,0,1h1a2.5,2.5,0,0,1,0,5Z"/><path class="cls-6" d="M35,45a1,1,0,0,1-1-1V43a1,1,0,0,1,2,0v1A1,1,0,0,1,35,45Z"/><path class="cls-6" d="M35,52a1,1,0,0,1-1-1V50a1,1,0,0,1,2,0v1A1,1,0,0,1,35,52Z"/></g></svg>