<svg xmlns="http://www.w3.org/2000/svg" viewBox="0 0 64 64"><defs><style>.cls-1,.cls-3,.cls-4{fill:#a6c7e2;}.cls-1{opacity:0.3;}.cls-2,.cls-4{opacity:0.8;}.cls-5{fill:#e82c2c;}.cls-6{fill:#f96363;}.cls-7{fill:#ff8e8e;}</style></defs><title>credit card</title><g id="credit_card" data-name="credit card"><path class="cls-1" d="M52,28H22a4,4,0,0,0-4,4V52a4,4,0,0,0,4,4H52a4,4,0,0,0,4-4V32A4,4,0,0,0,52,28ZM27,50H23a1,1,0,0,1,0-2h4a1,1,0,0,1,0,2Zm8,0H31a1,1,0,0,1,0-2h4a1,1,0,0,1,0,2Zm8,0H39a1,1,0,0,1,0-2h4a1,1,0,0,1,0,2Zm8,0H47a1,1,0,0,1,0-2h4a1,1,0,0,1,0,2Z"/><g class="cls-2"><path class="cls-3" d="M27,50H23a1,1,0,0,1,0-2h4a1,1,0,0,1,0,2Z"/></g><g class="cls-2"><path class="cls-3" d="M35,50H31a1,1,0,0,1,0-2h4a1,1,0,0,1,0,2Z"/></g><g class="cls-2"><path class="cls-3" d="M43,50H39a1,1,0,0,1,0-2h4a1,1,0,0,1,0,2Z"/></g><g class="cls-2"><path class="cls-3" d="M51,50H47a1,1,0,0,1,0-2h4a1,1,0,0,1,0,2Z"/></g><path class="cls-4" d="M46,12v4H8V12a4,4,0,0,1,4-4H42A4,4,0,0,1,46,12Z"/><path class="cls-4" d="M8,23H46v5H22a4,4,0,0,0-4,4v4H12a4,4,0,0,1-4-4Z"/><rect class="cls-1" x="8" y="16" width="38" height="7"/><path class="cls-5" d="M51,38a4,4,0,0,1-6.5,3.12,4,4,0,0,0,0-6.24A4,4,0,0,1,51,38Z"/><path class="cls-6" d="M46,38a4,4,0,1,1-1.5-3.12A4,4,0,0,1,46,38Z"/><rect class="cls-7" x="23" y="36" width="9" height="4" rx="2" ry="2"/></g></svg>