<svg xmlns="http://www.w3.org/2000/svg" viewBox="0 0 64 64"><defs><style>.cls-1,.cls-2,.cls-3,.cls-4{fill:#a6c7e2;}.cls-1{opacity:0.3;}.cls-2{opacity:0.8;}.cls-4{opacity:0.5;}.cls-5{fill:#e82c2c;}</style></defs><title>currency exchange</title><g id="currency_exchange" data-name="currency exchange"><path class="cls-1" d="M40,28A12,12,0,1,0,52,40,12,12,0,0,0,40,28Zm-.75,11h1.5A3.14,3.14,0,0,1,44,42a3.11,3.11,0,0,1-3,3v1a1,1,0,0,1-2,0V45H37a1,1,0,0,1,0-2h3.75a1,1,0,1,0,0-2h-1.5A3.14,3.14,0,0,1,36,38a3.11,3.11,0,0,1,3-3V34a1,1,0,0,1,2,0v1h2a1,1,0,0,1,0,2H39.25a1,1,0,1,0,0,2Z"/><path class="cls-2" d="M36,24.5a4.18,4.18,0,0,0,0-.5A12,12,0,1,0,24,36a4.18,4.18,0,0,0,.5,0,16.58,16.58,0,0,0-.5,4A16,16,0,1,1,40,24,16.58,16.58,0,0,0,36,24.5Z"/><path class="cls-1" d="M24,12a12,12,0,0,0,0,24,4.18,4.18,0,0,0,.5,0A16.07,16.07,0,0,1,36,24.5a4.18,4.18,0,0,0,0-.5A12,12,0,0,0,24,12Zm0,9a1,1,0,0,1,0,2H22a4.18,4.18,0,0,0,0,1h2a1,1,0,0,1,0,2H22.67a1.86,1.86,0,0,0,1.46,1,1.6,1.6,0,0,0,1.14-.58,1,1,0,0,1,1.46,1.36A3.53,3.53,0,0,1,24.13,29a4.13,4.13,0,0,1-3.69-3H20a1,1,0,0,1,0-2h0c0-.16,0-.33,0-.5s0-.34,0-.5h0a1,1,0,0,1,0-2h.44a4.13,4.13,0,0,1,3.69-3,3.53,3.53,0,0,1,2.6,1.22,1,1,0,0,1-1.46,1.36A1.6,1.6,0,0,0,24.13,20a1.86,1.86,0,0,0-1.46,1Z"/><path class="cls-3" d="M25.27,26.42a1.6,1.6,0,0,1-1.14.58,1.83,1.83,0,0,1-1.45-1H24a1,1,0,0,0,0-2H22c0-.17,0-.33,0-.5s0-.33,0-.5h2a1,1,0,0,0,0-2H22.68a1.83,1.83,0,0,1,1.45-1,1.6,1.6,0,0,1,1.14.58,1,1,0,0,0,1.46-1.36A3.53,3.53,0,0,0,24.13,18a4.12,4.12,0,0,0-3.67,3H20a1,1,0,0,0,0,2h0c0,.17,0,.33,0,.5s0,.33,0,.5h0a1,1,0,0,0,0,2h.46a4.12,4.12,0,0,0,3.67,3,3.53,3.53,0,0,0,2.6-1.22,1,1,0,0,0-1.46-1.36Z"/><path class="cls-4" d="M40,24a16.58,16.58,0,0,0-4,.5A16.07,16.07,0,0,0,24.5,36a16.58,16.58,0,0,0-.5,4A16,16,0,1,0,40,24Zm0,28A12,12,0,1,1,52,40,12,12,0,0,1,40,52Z"/><path class="cls-5" d="M53,25a1,1,0,0,1-1-1V21a9.06,9.06,0,0,0-9-9H40a1,1,0,0,1,0-2h3A11,11,0,0,1,54,21v3A1,1,0,0,1,53,25Z"/><path class="cls-5" d="M43,15a1,1,0,0,1-.71-.29l-3-3a1,1,0,0,1,0-1.42l3-3a1,1,0,1,1,1.42,1.42L41.41,11l2.3,2.29a1,1,0,0,1,0,1.42A1,1,0,0,1,43,15Z"/><path class="cls-5" d="M24,54H21A11,11,0,0,1,10,43V40a1,1,0,0,1,2,0v3a9.06,9.06,0,0,0,9,9h3a1,1,0,0,1,0,2Z"/><path class="cls-5" d="M21,57a1,1,0,0,1-.71-.29,1,1,0,0,1,0-1.42L22.59,53l-2.3-2.29a1,1,0,0,1,1.42-1.42l3,3a1,1,0,0,1,0,1.42l-3,3A1,1,0,0,1,21,57Z"/><path class="cls-3" d="M40.75,39h-1.5a1,1,0,1,1,0-2H43a1,1,0,0,0,0-2H41V34a1,1,0,0,0-2,0v1a3.11,3.11,0,0,0-3,3,3.14,3.14,0,0,0,3.25,3h1.5a1,1,0,1,1,0,2H37a1,1,0,0,0,0,2h2v1a1,1,0,0,0,2,0V45a3.11,3.11,0,0,0,3-3A3.14,3.14,0,0,0,40.75,39Z"/></g></svg>