<svg xmlns="http://www.w3.org/2000/svg" viewBox="0 0 64 64"><defs><style>.cls-1,.cls-2,.cls-3{fill:#a6c7e2;}.cls-1{opacity:0.3;}.cls-2{opacity:0.5;}.cls-3{opacity:0.8;}.cls-4{fill:#e82c2c;}.cls-5{fill:#ff8e8e;}</style></defs><title>deposit</title><g id="deposit"><path class="cls-1" d="M52,8H12a4,4,0,0,0-4,4V46a4,4,0,0,0,4,4H52a4,4,0,0,0,4-4V12A4,4,0,0,0,52,8Zm0,15a1,1,0,0,1-1,1V35a1,1,0,0,1,1,1v4a1,1,0,0,1-1,1v2a2,2,0,0,1-2,2H15a2,2,0,0,1-2-2V15a2,2,0,0,1,2-2H49a2,2,0,0,1,2,2v3a1,1,0,0,1,1,1Z"/><path class="cls-2" d="M50,19v4a1,1,0,0,0,1,1V35a1,1,0,0,0-1,1v4a1,1,0,0,0,1,1v2a2,2,0,0,1-2,2H15a2,2,0,0,1-2-2V15a2,2,0,0,1,2-2H49a2,2,0,0,1,2,2v3A1,1,0,0,0,50,19Z"/><path class="cls-3" d="M52,19v4a1,1,0,0,1-2,0V19a1,1,0,0,1,2,0Z"/><path class="cls-3" d="M52,36v4a1,1,0,0,1-2,0V36a1,1,0,0,1,2,0Z"/><path class="cls-4" d="M32,34a5,5,0,1,1,5-5A5,5,0,0,1,32,34Zm0-8a3,3,0,1,0,3,3A3,3,0,0,0,32,26Z"/><path class="cls-4" d="M32,26a1,1,0,0,1-1-1V23a1,1,0,0,1,2,0v2A1,1,0,0,1,32,26Z"/><path class="cls-4" d="M32,36a1,1,0,0,1-1-1V33a1,1,0,0,1,2,0v2A1,1,0,0,1,32,36Z"/><path class="cls-4" d="M28,30H26a1,1,0,0,1,0-2h2a1,1,0,0,1,0,2Z"/><path class="cls-4" d="M38,30H36a1,1,0,0,1,0-2h2a1,1,0,0,1,0,2Z"/><path class="cls-4" d="M29.17,27.17a1,1,0,0,1-.71-.29l-1.41-1.42a1,1,0,0,1,1.41-1.41l1.42,1.41a1,1,0,0,1,0,1.42A1,1,0,0,1,29.17,27.17Z"/><path class="cls-4" d="M36.24,34.24a1,1,0,0,1-.7-.29l-1.42-1.41a1,1,0,1,1,1.42-1.42L37,32.54A1,1,0,0,1,37,34,1,1,0,0,1,36.24,34.24Z"/><path class="cls-4" d="M27.76,34.24a1,1,0,0,1-.71-.29,1,1,0,0,1,0-1.41l1.41-1.42a1,1,0,1,1,1.42,1.42L28.46,34A1,1,0,0,1,27.76,34.24Z"/><path class="cls-4" d="M34.83,27.17a1,1,0,0,1-.71-.29,1,1,0,0,1,0-1.42l1.42-1.41A1,1,0,1,1,37,25.46l-1.41,1.42A1,1,0,0,1,34.83,27.17Z"/><path class="cls-3" d="M15,50h4a0,0,0,0,1,0,0v4a2,2,0,0,1-2,2h0a2,2,0,0,1-2-2V50a0,0,0,0,1,0,0Z"/><path class="cls-3" d="M49,50v4a2,2,0,0,1-2,2h0a2,2,0,0,1-2-2V50Z"/><path class="cls-5" d="M20,38a3,3,0,0,1-3-3V23a3,3,0,0,1,3-3,1,1,0,0,1,0,2,1,1,0,0,0-1,1V35a1,1,0,0,0,1,1,1,1,0,0,1,0,2Z"/></g></svg>