<svg xmlns="http://www.w3.org/2000/svg" viewBox="0 0 64 64"><defs><style>.cls-1,.cls-2,.cls-3{fill:#a6c7e2;}.cls-1{opacity:0.5;}.cls-2{opacity:0.3;}.cls-4{fill:#e82c2c;}.cls-5{opacity:0.8;}.cls-6{fill:#ff8e8e;}</style></defs><title>global exchange money</title><g id="global_exchange_money" data-name="global exchange money"><path class="cls-1" d="M42,33h3a1,1,0,0,0,0-2H42a44.88,44.88,0,0,0-.86-8.08A21.06,21.06,0,0,0,47,18.73L46.27,18c-.23-.24-.47-.47-.72-.7a18.9,18.9,0,0,1-4.87,3.61,21.11,21.11,0,0,0-3.92-8.34A19.77,19.77,0,0,0,32.24,12c2.54.22,5.15,3.85,6.6,9.73a19.2,19.2,0,0,1-13.68,0c1.45-5.88,4.06-9.51,6.6-9.73a19.77,19.77,0,0,0-4.52.56,21.11,21.11,0,0,0-3.92,8.34,18.9,18.9,0,0,1-4.87-3.61c-.25.23-.49.46-.72.7l-.69.73a21.06,21.06,0,0,0,5.83,4.19A44.88,44.88,0,0,0,22,31H19a1,1,0,0,0,0,2h3a44.88,44.88,0,0,0,.86,8.08A21.06,21.06,0,0,0,17,45.27l.69.73c.23.24.47.47.72.7a18.9,18.9,0,0,1,4.87-3.61,21.11,21.11,0,0,0,3.92,8.34,19.77,19.77,0,0,0,4.52.56c-2.54-.22-5.15-3.85-6.6-9.73a19.2,19.2,0,0,1,13.68,0c-1.45,5.88-4.06,9.51-6.6,9.73a19.77,19.77,0,0,0,4.52-.56,21.11,21.11,0,0,0,3.92-8.34,18.9,18.9,0,0,1,4.87,3.61c.25-.23.49-.46.72-.7l.69-.73a21.06,21.06,0,0,0-5.83-4.19A44.88,44.88,0,0,0,42,33ZM24.73,23.72a21.29,21.29,0,0,0,14.54,0A44.2,44.2,0,0,1,40,31H24A44.2,44.2,0,0,1,24.73,23.72ZM32,39a21.07,21.07,0,0,0-7.27,1.28A44.2,44.2,0,0,1,24,33H40a44.2,44.2,0,0,1-.72,7.28A21.07,21.07,0,0,0,32,39Z"/><path class="cls-2" d="M22.87,41.08A21.06,21.06,0,0,0,17,45.27a20.15,20.15,0,0,1-3.82-6.38,7,7,0,0,0,5.7-5.9H22A44.88,44.88,0,0,0,22.87,41.08Z"/><path class="cls-2" d="M13.22,25.11A20.15,20.15,0,0,1,17,18.73a21.06,21.06,0,0,0,5.83,4.19A44.88,44.88,0,0,0,22,31H18.92A7,7,0,0,0,13.22,25.11Z"/><path class="cls-2" d="M23.32,43.09a21.11,21.11,0,0,0,3.92,8.34,19.76,19.76,0,0,1-8.79-4.73A18.9,18.9,0,0,1,23.32,43.09Z"/><path class="cls-2" d="M23.32,20.91a18.9,18.9,0,0,1-4.87-3.61,19.76,19.76,0,0,1,8.79-4.73A21.11,21.11,0,0,0,23.32,20.91Z"/><path class="cls-2" d="M38.84,42.26c-1.45,5.88-4.06,9.51-6.6,9.73h-.48c-2.54-.22-5.15-3.85-6.6-9.73a19.2,19.2,0,0,1,13.68,0Z"/><path class="cls-2" d="M25.16,21.74c1.45-5.88,4.06-9.51,6.6-9.73h.48c2.54.22,5.15,3.85,6.6,9.73a19.2,19.2,0,0,1-13.68,0Z"/><path class="cls-2" d="M24,33H40a44.2,44.2,0,0,1-.72,7.28,21.29,21.29,0,0,0-14.54,0A44.2,44.2,0,0,1,24,33Z"/><path class="cls-2" d="M40,31H24a44.2,44.2,0,0,1,.72-7.28,21.29,21.29,0,0,0,14.54,0A44.2,44.2,0,0,1,40,31Z"/><path class="cls-2" d="M40.68,43.09a18.9,18.9,0,0,1,4.87,3.61,19.76,19.76,0,0,1-8.79,4.73A21.11,21.11,0,0,0,40.68,43.09Z"/><path class="cls-2" d="M40.68,20.91a21.11,21.11,0,0,0-3.92-8.34,19.76,19.76,0,0,1,8.79,4.73A18.9,18.9,0,0,1,40.68,20.91Z"/><path class="cls-2" d="M50.78,38.89A20.15,20.15,0,0,1,47,45.27a21.06,21.06,0,0,0-5.83-4.19A44.88,44.88,0,0,0,42,33h3.09A7,7,0,0,0,50.78,38.89Z"/><path class="cls-2" d="M41.13,22.92A21.06,21.06,0,0,0,47,18.73a20.15,20.15,0,0,1,3.82,6.38,7,7,0,0,0-5.7,5.9H42A44.88,44.88,0,0,0,41.13,22.92Z"/><path class="cls-3" d="M45.08,31a6.17,6.17,0,0,0,0,2,1,1,0,0,0,0-2ZM18,32a1,1,0,0,0,.92,1,6.17,6.17,0,0,0,0-2A1,1,0,0,0,18,32Z"/><path class="cls-4" d="M59,32a7,7,0,0,1-7,7,7,7,0,0,1,0-14A7,7,0,0,1,59,32Z"/><path class="cls-4" d="M19,32a7,7,0,1,1-5.78-6.89A7,7,0,0,1,19,32Z"/><g class="cls-5"><path class="cls-3" d="M54.23,41.81a1,1,0,0,0-1.13.53,23.5,23.5,0,0,1-38.79,5.13,1,1,0,0,0-1.41-.1,1,1,0,0,0-.09,1.42A25.51,25.51,0,0,0,53,46.48V48a1,1,0,0,0,2,0V42.78A1,1,0,0,0,54.23,41.81Z"/><path class="cls-3" d="M10.9,42.34a1,1,0,0,0-1.8.88c.32.65.67,1.3,1.05,1.92a1,1,0,0,0,.85.48,1,1,0,0,0,.52-.14,1,1,0,0,0,.34-1.37C11.52,43.53,11.19,42.94,10.9,42.34Z"/><path class="cls-3" d="M53.1,21.66a1,1,0,0,0,.9.56,1,1,0,0,0,.44-.1,1,1,0,0,0,.46-1.34c-.32-.64-.67-1.28-1-1.9a1,1,0,1,0-1.71,1C52.49,20.48,52.81,21.07,53.1,21.66Z"/><path class="cls-3" d="M9.56,22.12a1,1,0,0,0,.44.1,1,1,0,0,0,.9-.56A23.49,23.49,0,0,1,50,16.91a1,1,0,1,0,1.53-1.29,25.5,25.5,0,0,0-40.48,1.82V16a1,1,0,0,0-2,0v4.93A1,1,0,0,0,9.56,22.12Z"/></g><path class="cls-6" d="M52.5,31h-1a.5.5,0,0,1,0-1H54a1,1,0,0,0,0-2H53a1,1,0,0,0-2,0v.05A2.5,2.5,0,0,0,51.5,33h1a.5.5,0,0,1,0,1H50a1,1,0,0,0,0,2h1a1,1,0,0,0,2,0v0a2.5,2.5,0,0,0-.5-5Z"/><path class="cls-6" d="M12.5,30a.5.5,0,0,1,.5.5,1,1,0,0,0,2,0,2.5,2.5,0,0,0-5,0V31a1,1,0,0,0,0,2,2.37,2.37,0,0,1-.67,1.3,1,1,0,0,0-.21,1.09A1,1,0,0,0,10,36h4a1,1,0,0,0,0-2H11.77a4.79,4.79,0,0,0,.2-1h0a1,1,0,0,0,0-2v-.5A.5.5,0,0,1,12.5,30Z"/></g></svg>