<svg xmlns="http://www.w3.org/2000/svg" viewBox="0 0 64 64"><defs><style>.cls-1,.cls-2,.cls-5{fill:#a6c7e2;}.cls-1,.cls-7{opacity:0.3;}.cls-2,.cls-6{opacity:0.5;}.cls-3{fill:#e82c2c;}.cls-4{opacity:0.8;}</style></defs><title>growth</title><g id="growth"><path class="cls-1" d="M29,11a8,8,0,0,1-8,8H19V38.48l-.29-.29a1,1,0,0,0-1.42,0l-.29.29V16H15A8,8,0,0,1,7,8,1,1,0,0,1,8,7h3a8,8,0,0,1,7.75,6A8,8,0,0,1,25,10h3A1,1,0,0,1,29,11Z"/><path class="cls-2" d="M23.66,43.14,19,38.48l-.29-.29a1,1,0,0,0-1.42,0l-.29.29-4.66,4.66a8,8,0,1,0,11.32,0ZM17.5,47h1a2.5,2.5,0,0,1,.5,5v0a1,1,0,0,1-2,0H16a1,1,0,0,1,0-2h2.5a.5.5,0,0,0,0-1h-1a2.5,2.5,0,0,1-.5-5v0a1,1,0,0,1,2,0h1a1,1,0,0,1,0,2H17.5a.5.5,0,0,0,0,1Z"/><path class="cls-3" d="M21,37a1,1,0,0,1-.71-.29,1,1,0,0,1,0-1.42l12-12a1,1,0,0,1,1.42,0L39,28.56,52.27,14.32a1,1,0,0,1,1.46,1.36l-14,15A1,1,0,0,1,39,31a1.05,1.05,0,0,1-.73-.29L33,25.41,21.71,36.71A1,1,0,0,1,21,37Z"/><path class="cls-3" d="M53,23a1,1,0,0,1-1-1V16H46a1,1,0,0,1,0-2h7a1,1,0,0,1,1,1v7A1,1,0,0,1,53,23Z"/><g class="cls-4"><path class="cls-5" d="M57,53a1,1,0,0,1-1,1H27a1,1,0,0,1,0-2H56A1,1,0,0,1,57,53Z"/></g><g class="cls-6"><path class="cls-5" d="M48,35.15V52H46V35.15a1,1,0,0,1,2,0Z"/></g><g class="cls-7"><path class="cls-5" d="M47,32a1,1,0,0,1-1-1V29a1,1,0,0,1,2,0v2A1,1,0,0,1,47,32Z"/></g><g class="cls-6"><path class="cls-5" d="M40,43v9H38V43a1,1,0,0,1,2,0Z"/></g><g class="cls-7"><path class="cls-5" d="M39,40a1,1,0,0,1-1-1V37a1,1,0,0,1,2,0v2A1,1,0,0,1,39,40Z"/></g><g class="cls-6"><path class="cls-5" d="M32,48v4H30V48a1,1,0,0,1,2,0Z"/></g><g class="cls-7"><path class="cls-5" d="M31,45a1,1,0,0,1-1-1V42a1,1,0,0,1,2,0v2A1,1,0,0,1,31,45Z"/></g></g></svg>