<svg xmlns="http://www.w3.org/2000/svg" viewBox="0 0 64 64"><defs><style>.cls-1{fill:#f96363;}.cls-2{fill:#ff8e8e;}.cls-3,.cls-5,.cls-6{fill:#a6c7e2;}.cls-3{opacity:0.8;}.cls-4{fill:#e82c2c;}.cls-5{opacity:0.3;}.cls-6{opacity:0.5;}</style></defs><title>hourglass</title><g id="hourglass"><path class="cls-1" d="M56,24V40a4,4,0,0,1-4,4H36.8a14.44,14.44,0,0,0-1.25-4H49a3,3,0,0,1,3-3V27a3,3,0,0,1-3-3H35.55a14.44,14.44,0,0,0,1.25-4H52A4,4,0,0,1,56,24Z"/><path class="cls-2" d="M52,27V37a3,3,0,0,0-3,3H35.55a14.84,14.84,0,0,0-7.12-7.1,12.68,12.68,0,0,0-1.37-.56c-.35-.13-.7-.24-1.06-.34h0c.37-.1.73-.21,1.08-.34s.91-.35,1.35-.55A14.9,14.9,0,0,0,35.55,24H49A3,3,0,0,0,52,27Z"/><rect class="cls-3" x="8" y="8" width="32" height="6" rx="3" ry="3"/><rect class="cls-3" x="8" y="50" width="32" height="6" rx="3" ry="3"/><circle class="cls-4" cx="38" cy="32" r="4"/><path class="cls-4" d="M47,34a2,2,0,1,1,2-2A2,2,0,0,1,47,34Zm0-2Z"/><path class="cls-5" d="M36.8,44a14.44,14.44,0,0,0-1.25-4,14.84,14.84,0,0,0-7.12-7.1,12.68,12.68,0,0,0-1.37-.56c-.35-.13-.7-.24-1.06-.34H22a14.53,14.53,0,0,0-4,1.76,14.92,14.92,0,0,0-7,12.64V50h5l8-8,8,8h5V46.4A14.76,14.76,0,0,0,36.8,44ZM24,40a1,1,0,1,1,1-1A1,1,0,0,1,24,40Zm0-4a1,1,0,1,1,1-1A1,1,0,0,1,24,36Z"/><circle class="cls-6" cx="24" cy="35" r="1"/><circle class="cls-6" cx="24" cy="39" r="1"/><polygon class="cls-6" points="32 50 16 50 24 42 32 50"/><path class="cls-5" d="M37,14v3.59c0,.14,0,.28,0,.41-15.85-3-10.1,6.82-25.57,3.1A14.52,14.52,0,0,1,11,17.6V14Z"/><path class="cls-6" d="M37,18a14.72,14.72,0,0,1-.19,2,14.44,14.44,0,0,1-1.25,4,14.9,14.9,0,0,1-7.13,7.1c-.44.2-.89.39-1.35.55s-.71.24-1.08.34H22A14.9,14.9,0,0,1,11.42,21.1C26.89,24.82,21.14,15,37,18Z"/></g></svg>