<svg xmlns="http://www.w3.org/2000/svg" viewBox="0 0 64 64"><defs><style>.cls-1,.cls-2,.cls-3{fill:#a6c7e2;}.cls-1{opacity:0.8;}.cls-2{opacity:0.3;}.cls-3{opacity:0.5;}.cls-4{fill:#e82c2c;}.cls-5{fill:#ff8e8e;}</style></defs><title>internet banking</title><g id="internet_banking" data-name="internet banking"><path class="cls-1" d="M51,11H13a4,4,0,0,0-4,4V41a4,4,0,0,0,4,4H25l2,2H37l2-2H51a4,4,0,0,0,4-4V15A4,4,0,0,0,51,11Zm0,30H13V15H51Z"/><rect class="cls-2" x="13" y="15" width="38" height="26"/><path class="cls-3" d="M59,47a6,6,0,0,1-6,6H11a6,6,0,0,1-6-6,2,2,0,0,1,2-2H25l2,2H37l2-2H57A2,2,0,0,1,59,47Z"/><circle class="cls-4" cx="32" cy="28" r="8"/><path class="cls-5" d="M32.5,32H30a1,1,0,0,1,0-2h2.5a.5.5,0,0,0,0-1h-1a2.5,2.5,0,0,1,0-5H34a1,1,0,0,1,0,2H31.5a.5.5,0,0,0,0,1h1a2.5,2.5,0,0,1,0,5Z"/><path class="cls-5" d="M32,26a1,1,0,0,1-1-1V24a1,1,0,0,1,2,0v1A1,1,0,0,1,32,26Z"/><path class="cls-5" d="M32,33a1,1,0,0,1-1-1V31a1,1,0,0,1,2,0v1A1,1,0,0,1,32,33Z"/></g></svg>