<svg xmlns="http://www.w3.org/2000/svg" viewBox="0 0 64 64"><defs><style>.cls-1,.cls-4,.cls-5{fill:#a6c7e2;}.cls-1{opacity:0.3;}.cls-2{fill:#e82c2c;}.cls-3{fill:#ff8e8e;}.cls-5{opacity:0.5;}</style></defs><title>Investasion</title><g id="Investasion"><path class="cls-1" d="M47,15V25a3,3,0,0,0-3,3H20a3,3,0,0,0-3-3V15a3,3,0,0,0,3-3H44A3,3,0,0,0,47,15Z"/><circle class="cls-2" cx="32" cy="20" r="4"/><path class="cls-3" d="M23,22a2,2,0,1,1,2-2A2,2,0,0,1,23,22Zm0-2Z"/><path class="cls-3" d="M41,22a2,2,0,1,1,2-2A2,2,0,0,1,41,22Zm0-2Z"/><path class="cls-4" d="M47,8H17a4,4,0,0,0-4,4V28a4,4,0,0,0,4,4H29a2.07,2.07,0,0,1,2,2.11V46.54A6,6,0,0,0,27,45l-.2,0a9.92,9.92,0,0,1,.2,2,4,4,0,0,1,4,4v2a2,2,0,0,1-2,2H21a1,1,0,0,0,0,2H43a1,1,0,0,0,0-2H35a2,2,0,0,1-2-1.87A4,4,0,0,1,37,49a9.92,9.92,0,0,1,.2-2L37,47a6,6,0,0,0-4,1.54V34.11A2.07,2.07,0,0,1,35,32H47a4,4,0,0,0,4-4V12A4,4,0,0,0,47,8Zm0,17a3,3,0,0,0-3,3H20a3,3,0,0,0-3-3V15a3,3,0,0,0,3-3H44a3,3,0,0,0,3,3Z"/><path class="cls-5" d="M27,47H21A10,10,0,0,1,11,37h6A10,10,0,0,1,27,47Z"/><path class="cls-5" d="M53,39A10,10,0,0,1,43,49H37A10,10,0,0,1,47,39Z"/></g></svg>