<svg xmlns="http://www.w3.org/2000/svg" viewBox="0 0 64 64"><defs><style>.cls-1,.cls-6{opacity:0.5;}.cls-2,.cls-5,.cls-6{fill:#a6c7e2;}.cls-3{fill:#f96363;}.cls-4{opacity:0.3;}.cls-5,.cls-7{opacity:0.8;}.cls-8{fill:#e82c2c;}</style></defs><title>balance justice</title><g id="balance_justice" data-name="balance justice"><g class="cls-1"><path class="cls-2" d="M57,18a1,1,0,0,1-1,1H45.18a6.13,6.13,0,0,1-4.36-1.79,4.18,4.18,0,0,0-3-1.21h-2a3.91,3.91,0,0,0,0-2h2a6.18,6.18,0,0,1,4.36,1.79,4.18,4.18,0,0,0,3,1.21H56A1,1,0,0,1,57,18Z"/></g><g class="cls-1"><path class="cls-2" d="M28,15a3.71,3.71,0,0,0,.13,1h-2a4.09,4.09,0,0,0-2.91,1.21A6.12,6.12,0,0,1,18.88,19H8a1,1,0,0,1,0-2H18.88a4.09,4.09,0,0,0,2.91-1.21A6.12,6.12,0,0,1,26.12,14h2A3.71,3.71,0,0,0,28,15Z"/></g><path class="cls-3" d="M22.33,38.94A1,1,0,0,1,22,39a1,1,0,0,1-.94-.67L15,21,8.94,38.33a1,1,0,0,1-1.88-.66L13.59,19h2.82l6.53,18.67A1,1,0,0,1,22.33,38.94Z"/><path class="cls-3" d="M56.33,38.94A1,1,0,0,1,56,39a1,1,0,0,1-.94-.67L49,21l-6.06,17.3a1,1,0,0,1-1.88-.66L47.59,19h2.82l6.53,18.67A1,1,0,0,1,56.33,38.94Z"/><g class="cls-4"><path class="cls-2" d="M35,10v2.36a2.57,2.57,0,0,0-.33-.33,4.08,4.08,0,0,0-5.33,0,3.64,3.64,0,0,0-.34.34V10.19a3.26,3.26,0,0,1,1.08-2.43A2.86,2.86,0,0,1,32.32,7,3,3,0,0,1,35,10Z"/></g><g class="cls-4"><path class="cls-2" d="M35,17.64V47H29V17.64a2.57,2.57,0,0,0,.33.33,4,4,0,0,0,1.67.9,2,2,0,0,0,.35.07l.26,0L32,19l.39,0,.26,0a2.17,2.17,0,0,0,.35-.07A3.89,3.89,0,0,0,34.66,18,3.64,3.64,0,0,0,35,17.64Z"/></g><path class="cls-5" d="M46,55v1a1,1,0,0,1-1,1H19a1,1,0,0,1-1-1V55a4,4,0,0,1,3.08-3.89A3.93,3.93,0,0,1,22,51H42a3.93,3.93,0,0,1,.92.11A4,4,0,0,1,46,55Z"/><path class="cls-6" d="M42.92,51.11A3.93,3.93,0,0,0,42,51H22a3.93,3.93,0,0,0-.92.11A5,5,0,0,1,26,47H38A5,5,0,0,1,42.92,51.11Z"/><g class="cls-7"><path class="cls-2" d="M36,15a3.71,3.71,0,0,1-.13,1A3.83,3.83,0,0,1,35,17.64a3.64,3.64,0,0,1-.34.34,3.89,3.89,0,0,1-1.66.89,2.17,2.17,0,0,1-.35.07l-.26,0L32,19l-.39,0-.26,0a2,2,0,0,1-.35-.07,4,4,0,0,1-1.67-.9,2.57,2.57,0,0,1-.33-.33A3.78,3.78,0,0,1,28.13,16a3.91,3.91,0,0,1,0-2A3.83,3.83,0,0,1,29,12.36a3.64,3.64,0,0,1,.34-.34,4.08,4.08,0,0,1,5.33,0,2.57,2.57,0,0,1,.33.33A3.78,3.78,0,0,1,35.87,14,3.71,3.71,0,0,1,36,15Z"/></g><path class="cls-8" d="M57,37.84a.42.42,0,0,0,0-.16h0l0-.07A1,1,0,0,0,56,37H42a1,1,0,0,0-.92.6l0,.07h0a.42.42,0,0,0,0,.16A.55.55,0,0,0,41,38a8,8,0,0,0,16,0A.55.55,0,0,0,57,37.84ZM49,44a6,6,0,0,1-5.92-5H54.92A6,6,0,0,1,49,44Z"/><path class="cls-8" d="M54.92,39a6,6,0,0,1-11.84,0Z"/><path class="cls-8" d="M23,37.84a.42.42,0,0,0,0-.16h0l0-.07A1,1,0,0,0,22,37H8a1,1,0,0,0-.92.6l0,.07h0a.42.42,0,0,0,0,.16A.55.55,0,0,0,7,38a8,8,0,0,0,16,0A.55.55,0,0,0,23,37.84ZM15,44a6,6,0,0,1-5.92-5H20.92A6,6,0,0,1,15,44Z"/><path class="cls-8" d="M20.92,39A6,6,0,0,1,9.08,39Z"/></g></svg>