<svg xmlns="http://www.w3.org/2000/svg" viewBox="0 0 64 64"><defs><style>.cls-1{opacity:0.3;}.cls-2,.cls-4,.cls-5{fill:#a6c7e2;}.cls-3,.cls-5{opacity:0.5;}.cls-4{opacity:0.8;}.cls-6{fill:#e82c2c;}</style></defs><title>loss</title><g id="loss"><g class="cls-1"><path class="cls-2" d="M29,11a8,8,0,0,1-8,8H19V38.48l-.29-.29a1,1,0,0,0-1.42,0l-.29.29V16H15A8,8,0,0,1,7,8,1,1,0,0,1,8,7h3a8,8,0,0,1,7.75,6A8,8,0,0,1,25,10h3A1,1,0,0,1,29,11Z"/></g><g class="cls-3"><path class="cls-2" d="M23.66,43.14,19,38.48l-.29-.29a1,1,0,0,0-1.42,0l-.29.29-4.66,4.66a8,8,0,1,0,11.32,0ZM17.5,47h1a2.5,2.5,0,0,1,.5,5v0a1,1,0,0,1-2,0H16a1,1,0,0,1,0-2h2.5a.5.5,0,0,0,0-1h-1a2.5,2.5,0,0,1-.5-5v0a1,1,0,0,1,2,0h1a1,1,0,0,1,0,2H17.5a.5.5,0,0,0,0,1Z"/></g><path class="cls-4" d="M57,53a1,1,0,0,1-1,1H27a1,1,0,0,1,0-2H56A1,1,0,0,1,57,53Z"/><path class="cls-5" d="M30,36.15V52H28V36.15a1,1,0,0,1,2,0Z"/><g class="cls-3"><path class="cls-2" d="M38,43v9H36V43a1,1,0,0,1,2,0Z"/></g><g class="cls-3"><path class="cls-2" d="M46,48v4H44V48a1,1,0,0,1,2,0Z"/></g><path class="cls-6" d="M53,44a1,1,0,0,1-.73-.32L39,29.44l-5.27,5.27a1,1,0,0,1-1.42,0l-12-12a1,1,0,0,1,1.42-1.42L33,32.59l5.29-5.3A1.08,1.08,0,0,1,39,27a1,1,0,0,1,.71.32l14,15A1,1,0,0,1,53,44Z"/><path class="cls-6" d="M53,44H46a1,1,0,0,1,0-2h6V36a1,1,0,0,1,2,0v7A1,1,0,0,1,53,44Z"/></g></svg>