<svg xmlns="http://www.w3.org/2000/svg" viewBox="0 0 64 64"><defs><style>.cls-1{fill:#ff8e8e;}.cls-2{fill:#f96363;}.cls-3,.cls-4,.cls-7{fill:#a6c7e2;}.cls-3{opacity:0.8;}.cls-4{opacity:0.3;}.cls-5{fill:#e82c2c;}.cls-6{opacity:0.5;}</style></defs><title>mobile banking</title><g id="mobile_banking" data-name="mobile banking"><path class="cls-1" d="M52,20V44a3,3,0,0,0-3,3H42V35.46a4,4,0,1,0,0-6.92V17h7A3,3,0,0,0,52,20Z"/><path class="cls-2" d="M56,17V47a4,4,0,0,1-4,4H42V47h7a3,3,0,0,1,3-3V20a3,3,0,0,1-3-3H42V13H52A4,4,0,0,1,56,17Z"/><path class="cls-3" d="M38,8H12a4,4,0,0,0-4,4V52a4,4,0,0,0,4,4H38a4,4,0,0,0,4-4V12A4,4,0,0,0,38,8Zm0,41a2,2,0,0,1-2,2H14a2,2,0,0,1-2-2V15a2,2,0,0,1,2-2h6l2,2h6l2-2h6a2,2,0,0,1,2,2Z"/><rect class="cls-4" x="21" y="31" width="3" height="5"/><rect class="cls-4" x="26" y="31" width="3" height="5"/><path class="cls-4" d="M36,13H30l-2,2H22l-2-2H14a2,2,0,0,0-2,2V49a2,2,0,0,0,2,2H36a2,2,0,0,0,2-2V15A2,2,0,0,0,36,13ZM33,41H17a1,1,0,0,1,0-2H33a1,1,0,0,1,0,2ZM18,30a1,1,0,0,1,1-1H31a1,1,0,0,1,0,2v5a1,1,0,0,1,0,2H19a1,1,0,0,1,0-2V31A1,1,0,0,1,18,30Zm16.87-.51A1,1,0,0,1,34,30a1,1,0,0,1-.49-.13L25,25.14l-8.51,4.73a1,1,0,0,1-1-1.74l9-5a1,1,0,0,1,1,0l9,5A1,1,0,0,1,34.87,29.49Z"/><path class="cls-5" d="M48,32a4,4,0,0,1-6,3.46V28.54A4,4,0,0,1,48,32Z"/><circle class="cls-5" cx="44" cy="23" r="2"/><circle class="cls-5" cx="44" cy="41" r="2"/><g class="cls-6"><path class="cls-7" d="M34.49,28.13l-9-5a1,1,0,0,0-1,0l-9,5a1,1,0,0,0,1,1.74L25,25.14l8.51,4.73A1,1,0,0,0,34,30a1,1,0,0,0,.49-1.87Z"/><path class="cls-7" d="M18,37a1,1,0,0,0,1,1H31a1,1,0,0,0,0-2V31a1,1,0,0,0,0-2H19a1,1,0,0,0,0,2v5A1,1,0,0,0,18,37Zm11-1H26V31h3Zm-8-5h3v5H21Z"/><path class="cls-7" d="M33,39H17a1,1,0,0,0,0,2H33a1,1,0,0,0,0-2Z"/></g></g></svg>