<svg xmlns="http://www.w3.org/2000/svg" viewBox="0 0 64 64"><defs><style>.cls-1,.cls-2{fill:#a6c7e2;}.cls-1{opacity:0.8;}.cls-2{opacity:0.3;}.cls-3{fill:#e82c2c;}.cls-4{fill:#ff8e8e;}.cls-5{fill:#f96363;}</style></defs><title>mobile transfer money</title><g id="mobile_transfer_money" data-name="mobile transfer money"><path class="cls-1" d="M45,8H19a4,4,0,0,0-4,4V52a4,4,0,0,0,4,4H45a4,4,0,0,0,4-4V12A4,4,0,0,0,45,8Zm0,41a2,2,0,0,1-2,2H21a2,2,0,0,1-2-2V15a2,2,0,0,1,2-2h6l2,2h6l2-2h6a2,2,0,0,1,2,2Z"/><path class="cls-2" d="M45,15V49a2,2,0,0,1-2,2H21a2,2,0,0,1-2-2V15a2,2,0,0,1,2-2h6l2,2h6l2-2h6A2,2,0,0,1,45,15Z"/><path class="cls-3" d="M32,24a8,8,0,1,0,8,8A8,8,0,0,0,32,24Zm-.5,7h1a2.5,2.5,0,0,1,.5,5v0a1,1,0,0,1-2,0H30a1,1,0,0,1,0-2h2.5a.5.5,0,0,0,0-1h-1a2.5,2.5,0,0,1-.5-4.95V28a1,1,0,0,1,2,0h1a1,1,0,0,1,0,2H31.5a.5.5,0,0,0,0,1Z"/><path class="cls-4" d="M32,34a1,1,0,0,0-1,1v1H30a1,1,0,0,1,0-2Z"/><path class="cls-4" d="M35,33.5A2.5,2.5,0,0,1,33,36V35a1,1,0,0,0-1-1h.5a.5.5,0,0,0,0-1h-1a2.5,2.5,0,0,1-.5-4.95V29a1,1,0,0,0,1,1h-.5a.5.5,0,0,0,0,1h1A2.5,2.5,0,0,1,35,33.5Z"/><path class="cls-4" d="M35,29a1,1,0,0,1-1,1H32a1,1,0,0,0,1-1V28h1A1,1,0,0,1,35,29Z"/><path class="cls-4" d="M33,28v1a1,1,0,0,1-2,0v-.95a2.73,2.73,0,0,1,.5-.05Z"/><path class="cls-4" d="M33,28H31.5a2.73,2.73,0,0,0-.5.05V28a1,1,0,0,1,2,0Z"/><path class="cls-4" d="M33,36v0a1,1,0,0,1-2,0h1.5A2.73,2.73,0,0,0,33,36Z"/><path class="cls-4" d="M33,35v1a2.73,2.73,0,0,1-.5,0H31V35a1,1,0,0,1,2,0Z"/><path class="cls-5" d="M56,47H35a4,4,0,0,1-4-4,1,1,0,0,1,2,0,2,2,0,0,0,2,2H56a1,1,0,0,1,0,2Z"/><path class="cls-5" d="M53,50a1,1,0,0,1-.71-.29,1,1,0,0,1,0-1.42L54.59,46l-2.3-2.29a1,1,0,0,1,1.42-1.42l3,3a1,1,0,0,1,0,1.42l-3,3A1,1,0,0,1,53,50Z"/><path class="cls-5" d="M32,22a1,1,0,0,1-1-1,2,2,0,0,0-2-2H8a1,1,0,0,1,0-2H29a4,4,0,0,1,4,4A1,1,0,0,1,32,22Z"/><path class="cls-5" d="M11,22a1,1,0,0,1-.71-.29l-3-3a1,1,0,0,1,0-1.42l3-3a1,1,0,0,1,1.42,1.42L9.41,18l2.3,2.29a1,1,0,0,1,0,1.42A1,1,0,0,1,11,22Z"/></g></svg>