<svg xmlns="http://www.w3.org/2000/svg" viewBox="0 0 64 64"><defs><style>.cls-1{fill:#e82c2c;}.cls-2,.cls-3,.cls-4,.cls-6{fill:#a6c7e2;}.cls-2{opacity:0.3;}.cls-3{opacity:0.5;}.cls-4,.cls-5{opacity:0.8;}</style></defs><title>transfer money</title><g id="transfer_money" data-name="transfer money"><path class="cls-1" d="M57.26,50.36a1,1,0,0,0-1-.73h-12a1,1,0,0,0,0,2,2.28,2.28,0,0,1,1.75,3.74l-.52.62a1,1,0,0,0,.77,1.64,1,1,0,0,0,.51-.14l10-6A1,1,0,0,0,57.26,50.36Zm-8.68,3.73a4.29,4.29,0,0,0-.4-2,4.17,4.17,0,0,0-.26-.46h4.77Z"/><path class="cls-1" d="M52.69,51.63l-4.11,2.46a4.29,4.29,0,0,0-.4-2,4.17,4.17,0,0,0-.26-.46Z"/><path class="cls-1" d="M44.3,51.63h-28a1,1,0,0,1,0-2h28a1,1,0,0,1,0,2Z"/><path class="cls-1" d="M20.3,12.63a2.28,2.28,0,0,1-1.75-3.74l.52-.62a1,1,0,0,0-1.28-1.5l-10,6a1,1,0,0,0,.51,1.86h12a1,1,0,0,0,0-2Zm-8.39,0L16,10.17a4.29,4.29,0,0,0,.4,2,4.17,4.17,0,0,0,.26.46Z"/><path class="cls-1" d="M16.68,12.63H11.91L16,10.17a4.29,4.29,0,0,0,.4,2A4.17,4.17,0,0,0,16.68,12.63Z"/><path class="cls-1" d="M48.3,14.63h-28a1,1,0,0,1,0-2h28a1,1,0,0,1,0,2Z"/><path class="cls-2" d="M49,29V39a3,3,0,0,0-3,3H22a3,3,0,0,0-3-3V29a3,3,0,0,0,3-3H46A3,3,0,0,0,49,29Z"/><path class="cls-3" d="M49,22H19a4,4,0,0,0-4,4V42a4,4,0,0,0,4,4H49a4,4,0,0,0,4-4V26A4,4,0,0,0,49,22Zm0,17a3,3,0,0,0-3,3H22a3,3,0,0,0-3-3V29a3,3,0,0,0,3-3H46a3,3,0,0,0,3,3Z"/><path class="cls-4" d="M49,22H19a4,4,0,0,0-4,4V42a4,4,0,0,1-4-4V22a4,4,0,0,1,4-4H45A4,4,0,0,1,49,22Z"/><circle class="cls-4" cx="34" cy="34" r="4"/><g class="cls-5"><path class="cls-6" d="M25,36a2,2,0,1,1,2-2A2,2,0,0,1,25,36Zm0-2Z"/></g><g class="cls-5"><path class="cls-6" d="M43,36a2,2,0,1,1,2-2A2,2,0,0,1,43,36Zm0-2Z"/></g></g></svg>