<svg xmlns="http://www.w3.org/2000/svg" viewBox="0 0 64 64"><defs><style>.cls-1,.cls-2,.cls-6{fill:#a6c7e2;}.cls-1{opacity:0.8;}.cls-2{opacity:0.5;}.cls-3{fill:#ff8e8e;}.cls-4{fill:#e82c2c;}.cls-5{opacity:0.3;}</style></defs><title>passbook</title><g id="passbook"><path class="cls-1" d="M55.25,52.39,51,32H13L8.75,52.39A3,3,0,0,0,11.69,56H52.31A3,3,0,0,0,55.25,52.39ZM28,37H47a1,1,0,0,1,0,2H28a1,1,0,0,1,0-2Zm0,6H48a1,1,0,0,1,0,2H28a1,1,0,0,1,0-2Zm-5,8H15a1,1,0,0,1,0-2h8a1,1,0,0,1,0,2Zm0-6H16a1,1,0,0,1,0-2h7a1,1,0,0,1,0,2Zm0-6H17a1,1,0,0,1,0-2h6a1,1,0,0,1,0,2ZM49,51H28a1,1,0,0,1,0-2H49a1,1,0,0,1,0,2Z"/><path class="cls-2" d="M17,8H47a4,4,0,0,1,4,4V32a0,0,0,0,1,0,0H13a0,0,0,0,1,0,0V12A4,4,0,0,1,17,8Z"/><path class="cls-3" d="M26,16H18a1,1,0,0,1,0-2h8a1,1,0,0,1,0,2Z"/><path class="cls-3" d="M33,21H18a1,1,0,0,1,0-2H33a1,1,0,0,1,0,2Z"/><path class="cls-4" d="M42.5,24H40a1,1,0,0,1,0-2h2.5a.5.5,0,0,0,0-1h-1a2.5,2.5,0,0,1,0-5H44a1,1,0,0,1,0,2H41.5a.5.5,0,0,0,0,1h1a2.5,2.5,0,0,1,0,5Z"/><path class="cls-4" d="M42,18a1,1,0,0,1-1-1V16a1,1,0,0,1,2,0v1A1,1,0,0,1,42,18Z"/><path class="cls-4" d="M42,25a1,1,0,0,1-1-1V23a1,1,0,0,1,2,0v1A1,1,0,0,1,42,25Z"/><g class="cls-5"><path class="cls-6" d="M23,39H17a1,1,0,0,1,0-2h6a1,1,0,0,1,0,2Z"/></g><g class="cls-5"><path class="cls-6" d="M23,45H16a1,1,0,0,1,0-2h7a1,1,0,0,1,0,2Z"/></g><g class="cls-5"><path class="cls-6" d="M23,51H15a1,1,0,0,1,0-2h8a1,1,0,0,1,0,2Z"/></g><g class="cls-5"><path class="cls-6" d="M47,39H28a1,1,0,0,1,0-2H47a1,1,0,0,1,0,2Z"/></g><g class="cls-5"><path class="cls-6" d="M48,45H28a1,1,0,0,1,0-2H48a1,1,0,0,1,0,2Z"/></g><g class="cls-5"><path class="cls-6" d="M49,51H28a1,1,0,0,1,0-2H49a1,1,0,0,1,0,2Z"/></g></g></svg>