<svg xmlns="http://www.w3.org/2000/svg" viewBox="0 0 64 64"><defs><style>.cls-1,.cls-3{fill:#a6c7e2;}.cls-1{opacity:0.8;}.cls-2{fill:#ff8e8e;}.cls-3{opacity:0.3;}.cls-4{fill:#e82c2c;}</style></defs><title>profit</title><g id="profit"><path class="cls-1" d="M49,50.06v0A17.39,17.39,0,0,0,39,34.3L34.13,32H29.94L25,34.31A17.39,17.39,0,0,0,15,50.06h0a4.77,4.77,0,0,1-2.63,4.26h0A2.47,2.47,0,0,0,11,56.53h0A2.48,2.48,0,0,0,13.47,59H50.53A2.48,2.48,0,0,0,53,56.53h0a2.47,2.47,0,0,0-1.37-2.21h0A4.77,4.77,0,0,1,49,50.06Z"/><path class="cls-1" d="M37,28l-3,4H30l-3-4c1.25,0,1.25-1,2.5-1a2.23,2.23,0,0,1,1.5.69,1.77,1.77,0,0,0,2,0A2.23,2.23,0,0,1,34.5,27C35.75,27,35.75,28,37,28Z"/><path class="cls-2" d="M36,33H28a1,1,0,0,1,0-2h8a1,1,0,0,1,0,2Z"/><path class="cls-2" d="M36,33a1,1,0,0,1-.8-.4,1,1,0,0,1,.2-1.4l4-3a1,1,0,1,1,1.2,1.6l-4,3A1,1,0,0,1,36,33Z"/><path class="cls-2" d="M41,33H36a1,1,0,0,1,0-2h5a1,1,0,0,1,0,2Z"/><path class="cls-3" d="M49,5A11,11,0,0,1,38,16H33V27.69a1.77,1.77,0,0,1-2,0V19H26A11,11,0,0,1,15,8a1,1,0,0,1,1-1h6a11,11,0,0,1,9.36,5.22A11,11,0,0,1,42,4h6A1,1,0,0,1,49,5Z"/><path class="cls-4" d="M32.75,52H29a1,1,0,0,1,0-2h3.75a1,1,0,1,0,0-2h-1.5a3,3,0,1,1,0-6H35a1,1,0,0,1,0,2H31.25a1,1,0,1,0,0,2h1.5a3,3,0,1,1,0,6Z"/><path class="cls-4" d="M32,43.5a1,1,0,0,1-1-1V41a1,1,0,0,1,2,0v1.5A1,1,0,0,1,32,43.5Z"/><path class="cls-4" d="M32,54a1,1,0,0,1-1-1V51.5a1,1,0,0,1,2,0V53A1,1,0,0,1,32,54Z"/></g></svg>