<svg xmlns="http://www.w3.org/2000/svg" viewBox="0 0 64 64"><defs><style>.cls-1,.cls-4,.cls-5,.cls-7{fill:#a6c7e2;}.cls-1{opacity:0.3;}.cls-2{fill:#f96363;}.cls-3{fill:#ff8e8e;}.cls-4{opacity:0.5;}.cls-5,.cls-6{opacity:0.8;}.cls-8{fill:#e82c2c;}</style></defs><title>security</title><g id="security"><path class="cls-1" d="M23,17H41a0,0,0,0,1,0,0v7.88a9,9,0,0,1-9,9h0a9,9,0,0,1-9-9V17A0,0,0,0,1,23,17Z"/><path class="cls-2" d="M43,10,37.54,6.59A10.43,10.43,0,0,0,32,5h0a10.43,10.43,0,0,0-5.54,1.59L21,10h0a2,2,0,0,0-2,2v1a2,2,0,0,0,2,2h0l2,2H41l2-2h0a2,2,0,0,0,2-2V12a2,2,0,0,0-2-2Z"/><path class="cls-3" d="M23,17H41a0,0,0,0,1,0,0v0a5,5,0,0,1-5,5H28a5,5,0,0,1-5-5v0A0,0,0,0,1,23,17Z"/><path class="cls-4" d="M32,38a1.1,1.1,0,0,0-1.1,1L29,59H11l2.63-10.38A18.82,18.82,0,0,1,29.11,34.23l1.44,2.88A1.64,1.64,0,0,0,32,38Z"/><path class="cls-4" d="M50.37,48.62A18.82,18.82,0,0,0,34.89,34.23l-1.44,2.88A1.64,1.64,0,0,1,32,38a1.1,1.1,0,0,1,1.1,1L35,59H53ZM44,47H39a1,1,0,0,1,0-2h5a1,1,0,0,1,0,2Z"/><path class="cls-5" d="M45,46a1,1,0,0,1-1,1H39a1,1,0,0,1,0-2h5A1,1,0,0,1,45,46Z"/><g class="cls-6"><path class="cls-7" d="M47.77,39a1,1,0,0,1-.7-.29,21.49,21.49,0,0,0-5.27-3.82,1,1,0,1,1,.9-1.78,23,23,0,0,1,5.77,4.18,1,1,0,0,1,0,1.41A1,1,0,0,1,47.77,39Z"/></g><g class="cls-6"><path class="cls-7" d="M16.23,39a1,1,0,0,1-.71-.3,1,1,0,0,1,0-1.41,22.48,22.48,0,0,1,1.85-1.64,23,23,0,0,1,3.91-2.54,1,1,0,0,1,.92,1.78,20.67,20.67,0,0,0-3.58,2.32,22.58,22.58,0,0,0-1.7,1.5A1,1,0,0,1,16.23,39Z"/></g><circle class="cls-8" cx="32" cy="11" r="2"/><path class="cls-5" d="M34.89,34.23l-1.44,2.88a1.63,1.63,0,0,1-2.9,0l-1.44-2.88a18.27,18.27,0,0,1,5.78,0Z"/><path class="cls-5" d="M29,59l1.9-20A1.1,1.1,0,0,1,32,38h0a1.1,1.1,0,0,1,1.1,1L35,59Z"/></g></svg>