<svg xmlns="http://www.w3.org/2000/svg" viewBox="0 0 64 64"><defs><style>.cls-1,.cls-2,.cls-3{fill:#a6c7e2;}.cls-1{opacity:0.3;}.cls-2{opacity:0.8;}.cls-3{opacity:0.5;}.cls-4{fill:#e82c2c;}</style></defs><title>teller</title><g id="teller"><rect class="cls-1" x="25" y="8" width="14" height="16" rx="7" ry="7"/><path class="cls-2" d="M43.06,32.76a11.36,11.36,0,0,0-22.12,0L19,41H45Zm-9.17-5.31L33,29.24V39a1,1,0,0,1-2,0V29.24l-.89-1.79A1,1,0,0,1,31,26h2a1,1,0,0,1,.89,1.45Z"/><rect class="cls-1" x="8" y="41" width="48" height="4"/><rect class="cls-3" x="11" y="45" width="42" height="12"/><path class="cls-4" d="M32.5,55H30a1,1,0,0,1,0-2h2.5a.5.5,0,0,0,0-1h-1a2.5,2.5,0,0,1,0-5H34a1,1,0,0,1,0,2H31.5a.5.5,0,0,0,0,1h1a2.5,2.5,0,0,1,0,5Z"/><path class="cls-4" d="M32,49a1,1,0,0,1-1-1V47a1,1,0,0,1,2,0v1A1,1,0,0,1,32,49Z"/><path class="cls-4" d="M32,56a1,1,0,0,1-1-1V54a1,1,0,0,1,2,0v1A1,1,0,0,1,32,56Z"/><path class="cls-3" d="M33.85,26.47A1,1,0,0,0,33,26H31a1,1,0,0,0-.89,1.45L31,29.24V39a1,1,0,0,0,2,0V29.24l.89-1.79A1,1,0,0,0,33.85,26.47Z"/></g></svg>