<svg xmlns="http://www.w3.org/2000/svg" viewBox="0 0 64 64"><defs><style>.cls-1,.cls-2,.cls-3{fill:#a6c7e2;}.cls-1{opacity:0.3;}.cls-2{opacity:0.5;}.cls-3{opacity:0.8;}.cls-4{fill:#f96363;}.cls-5{fill:#e82c2c;}</style></defs><title>withdraw money</title><g id="withdraw_money" data-name="withdraw money"><polygon class="cls-1" points="56 23 8 23 8 17 32 8 56 17 56 23"/><rect class="cls-2" x="10" y="23" width="44" height="4"/><rect class="cls-1" x="8" y="49" width="26" height="5"/><rect class="cls-2" x="10" y="45" width="24" height="4"/><path class="cls-3" d="M12,27H22a0,0,0,0,1,0,0v2a2,2,0,0,1-2,2H14a2,2,0,0,1-2-2V27A0,0,0,0,1,12,27Z"/><path class="cls-3" d="M14,41h6a2,2,0,0,1,2,2v2a0,0,0,0,1,0,0H12a0,0,0,0,1,0,0V43A2,2,0,0,1,14,41Z"/><rect class="cls-3" x="14" y="31" width="6" height="10"/><path class="cls-3" d="M42,27H52a0,0,0,0,1,0,0v2a2,2,0,0,1-2,2H44a2,2,0,0,1-2-2V27A0,0,0,0,1,42,27Z"/><rect class="cls-3" x="44" y="31" width="6" height="11"/><circle class="cls-3" cx="32" cy="16" r="4"/><rect class="cls-4" x="34" y="42" width="22" height="14" rx="2" ry="2"/><circle class="cls-5" cx="45" cy="49" r="3"/><circle class="cls-5" cx="52" cy="49" r="1"/><circle class="cls-5" cx="38" cy="49" r="1"/><path class="cls-5" d="M32,41a1,1,0,0,1-1-1V31a1,1,0,0,1,2,0v9A1,1,0,0,1,32,41Z"/><path class="cls-5" d="M32,41a1,1,0,0,1-.71-.29l-3-3a1,1,0,0,1,1.42-1.42L32,38.59l2.29-2.3a1,1,0,0,1,1.42,1.42l-3,3A1,1,0,0,1,32,41Z"/></g></svg>