<svg width="579" height="192" viewBox="0 0 579 192" fill="none" xmlns="http://www.w3.org/2000/svg">
<path d="M217.724 83.248H206.5V134H185.638V83.248H178.074V65.924H185.638V63.972C185.638 55.5947 188.037 49.2507 192.836 44.94C197.635 40.548 204.67 38.352 213.942 38.352C215.487 38.352 216.626 38.3927 217.358 38.474V56.164C213.373 55.92 210.567 56.4893 208.94 57.872C207.313 59.2547 206.5 61.7353 206.5 65.314V65.924H217.724V83.248ZM294.749 65.924V134H273.887V124.728C271.772 127.737 268.885 130.177 265.225 132.048C261.646 133.837 257.661 134.732 253.269 134.732C248.064 134.732 243.468 133.593 239.483 131.316C235.498 128.957 232.407 125.582 230.211 121.19C228.015 116.798 226.917 111.633 226.917 105.696V65.924H247.657V102.89C247.657 107.445 248.836 110.983 251.195 113.504C253.554 116.025 256.726 117.286 260.711 117.286C264.778 117.286 267.99 116.025 270.349 113.504C272.708 110.983 273.887 107.445 273.887 102.89V65.924H294.749ZM351.214 65.192C359.185 65.192 365.529 67.7947 370.246 73C375.045 78.124 377.444 85.2 377.444 94.228V134H356.704V97.034C356.704 92.4793 355.525 88.9413 353.166 86.42C350.807 83.8987 347.635 82.638 343.65 82.638C339.665 82.638 336.493 83.8987 334.134 86.42C331.775 88.9413 330.596 92.4793 330.596 97.034V134H309.734V65.924H330.596V74.952C332.711 71.9427 335.557 69.584 339.136 67.876C342.715 66.0867 346.741 65.192 351.214 65.192ZM433.421 65.192C441.392 65.192 447.736 67.7947 452.453 73C457.252 78.124 459.651 85.2 459.651 94.228V134H438.911V97.034C438.911 92.4793 437.732 88.9413 435.373 86.42C433.014 83.8987 429.842 82.638 425.857 82.638C421.872 82.638 418.7 83.8987 416.341 86.42C413.982 88.9413 412.803 92.4793 412.803 97.034V134H391.941V65.924H412.803V74.952C414.918 71.9427 417.764 69.584 421.343 67.876C424.922 66.0867 428.948 65.192 433.421 65.192ZM538.32 98.864C538.32 100.816 538.198 102.849 537.954 104.964H490.74C491.065 109.193 492.407 112.447 494.766 114.724C497.206 116.92 500.175 118.018 503.672 118.018C508.877 118.018 512.497 115.822 514.53 111.43H536.734C535.595 115.903 533.521 119.929 530.512 123.508C527.584 127.087 523.883 129.893 519.41 131.926C514.937 133.959 509.935 134.976 504.404 134.976C497.735 134.976 491.797 133.553 486.592 130.706C481.387 127.859 477.32 123.793 474.392 118.506C471.464 113.219 470 107.038 470 99.962C470 92.886 471.423 86.7047 474.27 81.418C477.198 76.1313 481.265 72.0647 486.47 69.218C491.675 66.3713 497.653 64.948 504.404 64.948C510.992 64.948 516.848 66.3307 521.972 69.096C527.096 71.8613 531.081 75.806 533.928 80.93C536.856 86.054 538.32 92.032 538.32 98.864ZM516.97 93.374C516.97 89.7953 515.75 86.9487 513.31 84.834C510.87 82.7193 507.82 81.662 504.16 81.662C500.663 81.662 497.694 82.6787 495.254 84.712C492.895 86.7453 491.431 89.6327 490.862 93.374H516.97ZM570.188 43.72V134H549.326V43.72H570.188Z" fill="white"/>
<path d="M216.064 142.168V174H211.878V150.264L201.298 174H198.354L187.728 150.218V174H183.542V142.168H188.05L199.826 168.48L211.602 142.168H216.064ZM242.069 141.938V174H237.883V141.938H242.069ZM268.109 170.596H279.333V174H263.923V141.938H268.109V170.596ZM302.685 170.596H313.909V174H298.499V141.938H302.685V170.596ZM347.61 174.322C344.636 174.322 341.922 173.632 339.468 172.252C337.015 170.841 335.068 168.894 333.626 166.41C332.216 163.895 331.51 161.074 331.51 157.946C331.51 154.818 332.216 152.012 333.626 149.528C335.068 147.013 337.015 145.066 339.468 143.686C341.922 142.275 344.636 141.57 347.61 141.57C350.616 141.57 353.345 142.275 355.798 143.686C358.252 145.066 360.184 146.998 361.594 149.482C363.005 151.966 363.71 154.787 363.71 157.946C363.71 161.105 363.005 163.926 361.594 166.41C360.184 168.894 358.252 170.841 355.798 172.252C353.345 173.632 350.616 174.322 347.61 174.322ZM347.61 170.688C349.849 170.688 351.858 170.167 353.636 169.124C355.446 168.081 356.856 166.594 357.868 164.662C358.911 162.73 359.432 160.491 359.432 157.946C359.432 155.37 358.911 153.131 357.868 151.23C356.856 149.298 355.461 147.811 353.682 146.768C351.904 145.725 349.88 145.204 347.61 145.204C345.341 145.204 343.317 145.725 341.538 146.768C339.76 147.811 338.349 149.298 337.306 151.23C336.294 153.131 335.788 155.37 335.788 157.946C335.788 160.491 336.294 162.73 337.306 164.662C338.349 166.594 339.76 168.081 341.538 169.124C343.348 170.167 345.372 170.688 347.61 170.688ZM409.164 174H404.978L388.142 148.47V174H383.956V141.892H388.142L404.978 167.376V141.892H409.164V174ZM449.972 166.87H435.988L433.412 174H428.996L440.588 142.122H445.418L456.964 174H452.548L449.972 166.87ZM448.776 163.466L442.98 147.274L437.184 163.466H448.776ZM493.618 174L485.982 160.89H480.922V174H476.736V141.938H487.086C489.509 141.938 491.548 142.352 493.204 143.18C494.891 144.008 496.148 145.127 496.976 146.538C497.804 147.949 498.218 149.559 498.218 151.368C498.218 153.576 497.574 155.523 496.286 157.21C495.029 158.897 493.128 160.016 490.582 160.568L498.632 174H493.618ZM480.922 157.532H487.086C489.356 157.532 491.058 156.98 492.192 155.876C493.327 154.741 493.894 153.239 493.894 151.368C493.894 149.467 493.327 147.995 492.192 146.952C491.088 145.909 489.386 145.388 487.086 145.388H480.922V157.532ZM523.629 141.938V174H519.443V141.938H523.629ZM560.019 174.322C557.044 174.322 554.33 173.632 551.877 172.252C549.424 170.841 547.476 168.894 546.035 166.41C544.624 163.895 543.919 161.074 543.919 157.946C543.919 154.818 544.624 152.012 546.035 149.528C547.476 147.013 549.424 145.066 551.877 143.686C554.33 142.275 557.044 141.57 560.019 141.57C563.024 141.57 565.754 142.275 568.207 143.686C570.66 145.066 572.592 146.998 574.003 149.482C575.414 151.966 576.119 154.787 576.119 157.946C576.119 161.105 575.414 163.926 574.003 166.41C572.592 168.894 570.66 170.841 568.207 172.252C565.754 173.632 563.024 174.322 560.019 174.322ZM560.019 170.688C562.258 170.688 564.266 170.167 566.045 169.124C567.854 168.081 569.265 166.594 570.277 164.662C571.32 162.73 571.841 160.491 571.841 157.946C571.841 155.37 571.32 153.131 570.277 151.23C569.265 149.298 567.87 147.811 566.091 146.768C564.312 145.725 562.288 145.204 560.019 145.204C557.75 145.204 555.726 145.725 553.947 146.768C552.168 147.811 550.758 149.298 549.715 151.23C548.703 153.131 548.197 155.37 548.197 157.946C548.197 160.491 548.703 162.73 549.715 164.662C550.758 166.594 552.168 168.081 553.947 169.124C555.756 170.167 557.78 170.688 560.019 170.688Z" fill="white"/>
<path fill-rule="evenodd" clip-rule="evenodd" d="M10.2738 62.2732C7.64906 57.9504 1 59.811 1 64.8683V166.169C1 170.056 5.23986 172.456 8.57248 170.457L13.5725 167.457C15.0785 166.553 16 164.925 16 163.169V73.1028C16 72.1877 15.7488 71.2901 15.2738 70.5078L10.2738 62.2732ZM143.11 68.0116C146.072 64.3429 152 66.4373 152 71.1525V129.933C152 131.542 151.225 133.053 149.919 133.992L143.919 138.306C140.611 140.685 136 138.321 136 134.247V78.5842C136 77.4411 136.392 76.3326 137.11 75.4432L143.11 68.0116Z" fill="white"/>
<mask id="path-4-outside-1_12_13" maskUnits="userSpaceOnUse" x="-0.804321" y="35.5" width="154" height="125" fill="black">
<rect fill="white" x="-0.804321" y="35.5" width="154" height="125"/>
<path fill-rule="evenodd" clip-rule="evenodd" d="M5.19946 38.5C3.51582 38.5 2.58556 40.4533 3.64665 41.7605L55.4108 105.53C55.7001 105.886 55.8579 106.331 55.8579 106.79L55.8579 154.758C55.8579 156.311 57.5507 157.272 58.8838 156.475L69.5327 150.113C70.1369 149.752 70.5068 149.1 70.5068 148.396L70.5069 106.487C70.5069 106.031 70.3511 105.589 70.0653 105.233L16.9897 39.2465C16.6101 38.7745 16.037 38.5 15.4313 38.5H5.19946ZM147.566 42.0281C149.243 42.0168 150.188 43.9507 149.149 45.2672L101.549 105.568C101.286 105.901 101.136 106.309 101.12 106.734L100.223 131.13C100.199 131.774 99.8672 132.367 99.3305 132.723L90.1061 138.846C88.7767 139.729 87 138.776 87 137.18V106.462C87 106.021 87.1454 105.593 87.4138 105.244L135.303 42.882C135.679 42.3929 136.259 42.1044 136.876 42.1002L147.566 42.0281Z"/>
</mask>
<path fill-rule="evenodd" clip-rule="evenodd" d="M5.19946 38.5C3.51582 38.5 2.58556 40.4533 3.64665 41.7605L55.4108 105.53C55.7001 105.886 55.8579 106.331 55.8579 106.79L55.8579 154.758C55.8579 156.311 57.5507 157.272 58.8838 156.475L69.5327 150.113C70.1369 149.752 70.5068 149.1 70.5068 148.396L70.5069 106.487C70.5069 106.031 70.3511 105.589 70.0653 105.233L16.9897 39.2465C16.6101 38.7745 16.037 38.5 15.4313 38.5H5.19946ZM147.566 42.0281C149.243 42.0168 150.188 43.9507 149.149 45.2672L101.549 105.568C101.286 105.901 101.136 106.309 101.12 106.734L100.223 131.13C100.199 131.774 99.8672 132.367 99.3305 132.723L90.1061 138.846C88.7767 139.729 87 138.776 87 137.18V106.462C87 106.021 87.1454 105.593 87.4138 105.244L135.303 42.882C135.679 42.3929 136.259 42.1044 136.876 42.1002L147.566 42.0281Z" fill="url(#paint0_linear_12_13)"/>
<path d="M3.64665 41.7605L1.31744 43.6512L1.31744 43.6512L3.64665 41.7605ZM55.4108 105.53L57.74 103.639L57.74 103.639L55.4108 105.53ZM55.8579 106.79L58.8579 106.79V106.79H55.8579ZM55.8579 154.758L52.8579 154.758V154.758H55.8579ZM58.8838 156.475L60.4225 159.051L60.4225 159.051L58.8838 156.475ZM69.5327 150.113L71.0714 152.688L71.0714 152.688L69.5327 150.113ZM70.5068 148.396L67.5068 148.396V148.396H70.5068ZM70.5069 106.487L73.5069 106.487V106.487H70.5069ZM70.0653 105.233L72.403 103.353L72.4029 103.353L70.0653 105.233ZM16.9897 39.2465L19.3274 37.3662L19.3274 37.3662L16.9897 39.2465ZM149.149 45.2672L151.504 47.126L151.504 47.126L149.149 45.2672ZM147.566 42.0281L147.546 39.0282L147.546 39.0282L147.566 42.0281ZM101.549 105.568L99.1944 103.709L99.1944 103.709L101.549 105.568ZM101.12 106.734L104.118 106.844L104.118 106.844L101.12 106.734ZM100.223 131.13L97.2251 131.02L97.2251 131.02L100.223 131.13ZM99.3305 132.723L100.99 135.223L100.99 135.223L99.3305 132.723ZM90.1061 138.846L91.7652 141.346L91.7652 141.346L90.1061 138.846ZM87.4138 105.244L85.0344 103.416L85.0344 103.416L87.4138 105.244ZM135.303 42.882L132.924 41.0548L132.924 41.0548L135.303 42.882ZM136.876 42.1002L136.856 39.1003L136.856 39.1003L136.876 42.1002ZM5.97586 39.8698C6.50641 40.5234 6.04127 41.5 5.19946 41.5V35.5C0.990364 35.5 -1.33529 40.3832 1.31744 43.6512L5.97586 39.8698ZM57.74 103.639L5.97586 39.8698L1.31744 43.6512L53.0815 107.421L57.74 103.639ZM58.8579 106.79C58.8579 105.643 58.4632 104.53 57.74 103.639L53.0815 107.42C52.9369 107.242 52.8579 107.02 52.8579 106.79H58.8579ZM58.8579 154.758L58.8579 106.79L52.8579 106.79L52.8579 154.758L58.8579 154.758ZM57.345 153.9C58.0116 153.502 58.8579 153.982 58.8579 154.758H52.8579C52.8579 158.641 57.0897 161.042 60.4225 159.051L57.345 153.9ZM67.9939 147.537L57.345 153.9L60.4225 159.051L71.0714 152.688L67.9939 147.537ZM67.5068 148.396C67.5068 148.044 67.6918 147.718 67.9939 147.537L71.0714 152.688C72.5819 151.786 73.5068 150.155 73.5068 148.396H67.5068ZM67.5069 106.487L67.5068 148.396L73.5068 148.396L73.5069 106.487L67.5069 106.487ZM67.7276 107.114C67.5848 106.936 67.5069 106.715 67.5069 106.487H73.5069C73.5069 105.347 73.1174 104.241 72.403 103.353L67.7276 107.114ZM14.6521 41.1268L67.7276 107.114L72.4029 103.353L19.3274 37.3662L14.6521 41.1268ZM15.4313 41.5C15.1284 41.5 14.8419 41.3627 14.6521 41.1268L19.3274 37.3662C18.3783 36.1863 16.9456 35.5 15.4313 35.5V41.5ZM5.19946 41.5H15.4313V35.5H5.19946V41.5ZM151.504 47.126C154.102 43.8348 151.739 38.9999 147.546 39.0282L147.586 45.028C146.747 45.0337 146.275 44.0667 146.794 43.4084L151.504 47.126ZM103.904 107.427L151.504 47.126L146.794 43.4084L99.1944 103.709L103.904 107.427ZM104.118 106.844C104.111 107.056 104.035 107.26 103.904 107.427L99.1944 103.709C98.5369 104.542 98.1614 105.563 98.1224 106.623L104.118 106.844ZM103.221 131.241L104.118 106.844L98.1224 106.623L97.2251 131.02L103.221 131.241ZM100.99 135.223C102.331 134.332 103.162 132.85 103.221 131.241L97.2251 131.02C97.2369 130.698 97.4031 130.402 97.6714 130.224L100.99 135.223ZM91.7652 141.346L100.99 135.223L97.6714 130.224L88.447 136.347L91.7652 141.346ZM84 137.18C84 141.169 88.4418 143.552 91.7652 141.346L88.447 136.347C89.1116 135.906 90 136.382 90 137.18H84ZM84 106.462V137.18H90V106.462H84ZM85.0344 103.416C84.3636 104.29 84 105.36 84 106.462H90C90 106.682 89.9273 106.896 89.7931 107.071L85.0344 103.416ZM132.924 41.0548L85.0344 103.416L89.7931 107.071L137.683 44.7092L132.924 41.0548ZM136.856 39.1003C135.314 39.1107 133.863 39.8319 132.924 41.0548L137.683 44.7092C137.495 44.9538 137.205 45.0981 136.896 45.1001L136.856 39.1003ZM147.546 39.0282L136.856 39.1003L136.896 45.1001L147.586 45.028L147.546 39.0282Z" fill="url(#paint1_linear_12_13)" mask="url(#path-4-outside-1_12_13)"/>
<defs>
<linearGradient id="paint0_linear_12_13" x1="150" y1="41.5" x2="55" y2="152.5" gradientUnits="userSpaceOnUse">
<stop stop-color="white"/>
<stop offset="1" stop-color="white"/>
</linearGradient>
<linearGradient id="paint1_linear_12_13" x1="150" y1="38" x2="14" y2="151.5" gradientUnits="userSpaceOnUse">
<stop stop-color="white"/>
<stop offset="1" stop-color="white"/>
</linearGradient>
</defs>
</svg>
