<svg width="132" height="161" viewBox="0 0 132 161" fill="none" xmlns="http://www.w3.org/2000/svg">
<rect x="2.37836" y="11.8918" width="14.2703" height="14.2703" fill="url(#paint0_linear_128_6)"/>
<rect y="45.1892" width="9.51351" height="9.51351" fill="url(#paint1_linear_128_6)"/>
<rect x="7.13513" y="71.3513" width="9.51351" height="9.51351" fill="url(#paint2_linear_128_6)"/>
<rect x="16.6487" y="26.1621" width="21.4054" height="21.4054" fill="url(#paint3_linear_128_6)"/>
<rect x="23.7838" width="9" height="9" fill="url(#paint4_linear_128_6)"/>
<rect x="47.5676" y="2.37842" width="14.2703" height="14.2703" fill="url(#paint5_linear_128_6)"/>
<rect x="49.9459" y="28.5405" width="9.51351" height="9.51351" fill="url(#paint6_linear_128_6)"/>
<path fill-rule="evenodd" clip-rule="evenodd" d="M44 54.7027V42.8108H132V54.7027L88 112.973V147.459L59.4595 160.541V112.973L16.6487 54.7027H44ZM52.3243 49.9459H59.4594V57.0811H52.3243V49.9459ZM45.1892 59.4594H33.2973V71.3513H45.1892V59.4594Z" fill="url(#paint7_linear_128_6)"/>
<defs>
<linearGradient id="paint0_linear_128_6" x1="9.51349" y1="11.8918" x2="9.51349" y2="26.1621" gradientUnits="userSpaceOnUse">
<stop stop-color="#FF6109"/>
<stop offset="1" stop-color="#FF6109"/>
</linearGradient>
<linearGradient id="paint1_linear_128_6" x1="4.75676" y1="45.1892" x2="4.75676" y2="54.7027" gradientUnits="userSpaceOnUse">
<stop stop-color="#FF6109"/>
<stop offset="1" stop-color="#FF6109"/>
</linearGradient>
<linearGradient id="paint2_linear_128_6" x1="11.8919" y1="71.3513" x2="11.8919" y2="80.8648" gradientUnits="userSpaceOnUse">
<stop stop-color="#FF6109"/>
<stop offset="1" stop-color="#FF6109"/>
</linearGradient>
<linearGradient id="paint3_linear_128_6" x1="27.3514" y1="26.1621" x2="27.3514" y2="47.5675" gradientUnits="userSpaceOnUse">
<stop stop-color="#FF6109"/>
<stop offset="1" stop-color="#FF6109"/>
</linearGradient>
<linearGradient id="paint4_linear_128_6" x1="28.2838" y1="0" x2="28.2838" y2="9" gradientUnits="userSpaceOnUse">
<stop stop-color="#FF6109"/>
<stop offset="1" stop-color="#FF6109"/>
</linearGradient>
<linearGradient id="paint5_linear_128_6" x1="54.7028" y1="2.37842" x2="54.7028" y2="16.6487" gradientUnits="userSpaceOnUse">
<stop stop-color="#FF6109"/>
<stop offset="0.9999" stop-color="#FF6109"/>
<stop offset="1" stop-color="#DB5497"/>
</linearGradient>
<linearGradient id="paint6_linear_128_6" x1="54.7027" y1="28.5405" x2="54.7027" y2="38.054" gradientUnits="userSpaceOnUse">
<stop stop-color="#FF6109"/>
<stop offset="1" stop-color="#FF6109"/>
</linearGradient>
<linearGradient id="paint7_linear_128_6" x1="130.5" y1="45" x2="58" y2="161" gradientUnits="userSpaceOnUse">
<stop stop-color="#FF6109"/>
<stop offset="1" stop-color="#FFA800"/>
</linearGradient>
</defs>
</svg>
