<svg width="225" height="226" viewBox="0 0 225 226" fill="none" xmlns="http://www.w3.org/2000/svg">
<path d="M16.796 182.172H11.752V205H4.368V182.172H1.092V176.192H4.368V174.736C4.368 171.2 5.37333 168.6 7.384 166.936C9.39467 165.272 12.428 164.492 16.484 164.596V170.732C14.716 170.697 13.4853 170.992 12.792 171.616C12.0987 172.24 11.752 173.367 11.752 174.996V176.192H16.796V182.172ZM48.7098 176.192V205H41.3778V201.36C40.4418 202.608 39.2111 203.596 37.6858 204.324C36.1951 205.017 34.5658 205.364 32.7978 205.364C30.5444 205.364 28.5511 204.896 26.8178 203.96C25.0844 202.989 23.7151 201.585 22.7098 199.748C21.7391 197.876 21.2538 195.657 21.2538 193.092V176.192H28.5338V192.052C28.5338 194.34 29.1058 196.108 30.2498 197.356C31.3938 198.569 32.9538 199.176 34.9298 199.176C36.9404 199.176 38.5178 198.569 39.6618 197.356C40.8058 196.108 41.3778 194.34 41.3778 192.052V176.192H48.7098ZM71.8567 175.776C75.2887 175.776 78.062 176.868 80.1767 179.052C82.2914 181.201 83.3487 184.217 83.3487 188.1V205H76.0687V189.088C76.0687 186.8 75.4967 185.049 74.3527 183.836C73.2087 182.588 71.6487 181.964 69.6727 181.964C67.662 181.964 66.0674 182.588 64.8887 183.836C63.7447 185.049 63.1727 186.8 63.1727 189.088V205H55.8927V176.192H63.1727V179.78C64.1434 178.532 65.374 177.561 66.8647 176.868C68.39 176.14 70.054 175.776 71.8567 175.776ZM106.236 175.776C109.668 175.776 112.441 176.868 114.556 179.052C116.67 181.201 117.728 184.217 117.728 188.1V205H110.448V189.088C110.448 186.8 109.876 185.049 108.732 183.836C107.588 182.588 106.028 181.964 104.052 181.964C102.041 181.964 100.446 182.588 99.2676 183.836C98.1236 185.049 97.5516 186.8 97.5516 189.088V205H90.2716V176.192H97.5516V179.78C98.5223 178.532 99.7529 177.561 101.244 176.868C102.769 176.14 104.433 175.776 106.236 175.776ZM151.431 189.972C151.431 191.012 151.361 191.948 151.223 192.78H130.163C130.336 194.86 131.064 196.489 132.347 197.668C133.629 198.847 135.207 199.436 137.079 199.436C139.783 199.436 141.707 198.275 142.851 195.952H150.703C149.871 198.725 148.276 201.013 145.919 202.816C143.561 204.584 140.667 205.468 137.235 205.468C134.461 205.468 131.965 204.861 129.747 203.648C127.563 202.4 125.847 200.649 124.599 198.396C123.385 196.143 122.778 193.543 122.778 190.596C122.778 187.615 123.385 184.997 124.599 182.744C125.812 180.491 127.511 178.757 129.695 177.544C131.879 176.331 134.392 175.724 137.235 175.724C139.973 175.724 142.417 176.313 144.567 177.492C146.751 178.671 148.432 180.352 149.611 182.536C150.824 184.685 151.431 187.164 151.431 189.972ZM143.891 187.892C143.856 186.02 143.18 184.529 141.863 183.42C140.545 182.276 138.933 181.704 137.027 181.704C135.224 181.704 133.699 182.259 132.451 183.368C131.237 184.443 130.492 185.951 130.215 187.892H143.891ZM164.024 166.52V205H156.744V166.52H164.024ZM182.241 205.468C179.884 205.468 177.769 205.052 175.897 204.22C174.025 203.353 172.534 202.192 171.425 200.736C170.35 199.28 169.761 197.668 169.657 195.9H176.989C177.128 197.009 177.665 197.928 178.601 198.656C179.572 199.384 180.768 199.748 182.189 199.748C183.576 199.748 184.65 199.471 185.413 198.916C186.21 198.361 186.609 197.651 186.609 196.784C186.609 195.848 186.124 195.155 185.153 194.704C184.217 194.219 182.709 193.699 180.629 193.144C178.48 192.624 176.712 192.087 175.325 191.532C173.973 190.977 172.794 190.128 171.789 188.984C170.818 187.84 170.333 186.297 170.333 184.356C170.333 182.761 170.784 181.305 171.685 179.988C172.621 178.671 173.938 177.631 175.637 176.868C177.37 176.105 179.398 175.724 181.721 175.724C185.153 175.724 187.892 176.591 189.937 178.324C191.982 180.023 193.109 182.328 193.317 185.24H186.349C186.245 184.096 185.76 183.195 184.893 182.536C184.061 181.843 182.934 181.496 181.513 181.496C180.196 181.496 179.173 181.739 178.445 182.224C177.752 182.709 177.405 183.385 177.405 184.252C177.405 185.223 177.89 185.968 178.861 186.488C179.832 186.973 181.34 187.476 183.385 187.996C185.465 188.516 187.181 189.053 188.533 189.608C189.885 190.163 191.046 191.029 192.017 192.208C193.022 193.352 193.542 194.877 193.577 196.784C193.577 198.448 193.109 199.939 192.173 201.256C191.272 202.573 189.954 203.613 188.221 204.376C186.522 205.104 184.529 205.468 182.241 205.468ZM222.849 172.604L209.017 205H201.633L215.569 173.436H197.785V167.196H222.849V172.604Z" fill="white"/>
<rect x="49.3784" y="11.8919" width="14.2703" height="14.2703" fill="white"/>
<rect x="47" y="45.1892" width="9.51351" height="9.51351" fill="white"/>
<rect x="54.1351" y="71.3514" width="9.51351" height="9.51351" fill="white"/>
<rect x="63.6487" y="26.1621" width="21.4054" height="21.4054" fill="white"/>
<rect x="70.7838" width="9" height="9" fill="white"/>
<rect x="94.5676" y="2.37839" width="14.2703" height="14.2703" fill="white"/>
<rect x="96.9459" y="28.5405" width="9.51351" height="9.51351" fill="white"/>
<path fill-rule="evenodd" clip-rule="evenodd" d="M91 54.7027V42.8108H179V54.7027L135 112.973V147.459L106.459 160.541V112.973L63.6487 54.7027H91ZM99.3243 49.9459H106.459V57.0811H99.3243V49.9459ZM92.1892 59.4594H80.2973V71.3513H92.1892V59.4594Z" fill="url(#paint0_linear_2_126)"/>
<defs>
<linearGradient id="paint0_linear_2_126" x1="177.5" y1="45" x2="105" y2="161" gradientUnits="userSpaceOnUse">
<stop stop-color="white"/>
<stop offset="1" stop-color="white"/>
</linearGradient>
</defs>
</svg>
