<svg width="582" height="193" viewBox="0 0 582 193" fill="none" xmlns="http://www.w3.org/2000/svg">
<path d="M221.724 83.248H210.5V134H189.638V83.248H182.074V65.924H189.638V63.972C189.638 55.5947 192.037 49.2507 196.836 44.94C201.635 40.548 208.67 38.352 217.942 38.352C219.487 38.352 220.626 38.3927 221.358 38.474V56.164C217.373 55.92 214.567 56.4893 212.94 57.872C211.313 59.2547 210.5 61.7353 210.5 65.314V65.924H221.724V83.248ZM298.749 65.924V134H277.887V124.728C275.772 127.737 272.885 130.177 269.225 132.048C265.646 133.837 261.661 134.732 257.269 134.732C252.064 134.732 247.468 133.593 243.483 131.316C239.498 128.957 236.407 125.582 234.211 121.19C232.015 116.798 230.917 111.633 230.917 105.696V65.924H251.657V102.89C251.657 107.445 252.836 110.983 255.195 113.504C257.554 116.025 260.726 117.286 264.711 117.286C268.778 117.286 271.99 116.025 274.349 113.504C276.708 110.983 277.887 107.445 277.887 102.89V65.924H298.749ZM355.214 65.192C363.185 65.192 369.529 67.7947 374.246 73C379.045 78.124 381.444 85.2 381.444 94.228V134H360.704V97.034C360.704 92.4793 359.525 88.9413 357.166 86.42C354.807 83.8987 351.635 82.638 347.65 82.638C343.665 82.638 340.493 83.8987 338.134 86.42C335.775 88.9413 334.596 92.4793 334.596 97.034V134H313.734V65.924H334.596V74.952C336.711 71.9427 339.557 69.584 343.136 67.876C346.715 66.0867 350.741 65.192 355.214 65.192ZM437.421 65.192C445.392 65.192 451.736 67.7947 456.453 73C461.252 78.124 463.651 85.2 463.651 94.228V134H442.911V97.034C442.911 92.4793 441.732 88.9413 439.373 86.42C437.014 83.8987 433.842 82.638 429.857 82.638C425.872 82.638 422.7 83.8987 420.341 86.42C417.982 88.9413 416.803 92.4793 416.803 97.034V134H395.941V65.924H416.803V74.952C418.918 71.9427 421.764 69.584 425.343 67.876C428.922 66.0867 432.948 65.192 437.421 65.192ZM542.32 98.864C542.32 100.816 542.198 102.849 541.954 104.964H494.74C495.065 109.193 496.407 112.447 498.766 114.724C501.206 116.92 504.175 118.018 507.672 118.018C512.877 118.018 516.497 115.822 518.53 111.43H540.734C539.595 115.903 537.521 119.929 534.512 123.508C531.584 127.087 527.883 129.893 523.41 131.926C518.937 133.959 513.935 134.976 508.404 134.976C501.735 134.976 495.797 133.553 490.592 130.706C485.387 127.859 481.32 123.793 478.392 118.506C475.464 113.219 474 107.038 474 99.962C474 92.886 475.423 86.7047 478.27 81.418C481.198 76.1313 485.265 72.0647 490.47 69.218C495.675 66.3713 501.653 64.948 508.404 64.948C514.992 64.948 520.848 66.3307 525.972 69.096C531.096 71.8613 535.081 75.806 537.928 80.93C540.856 86.054 542.32 92.032 542.32 98.864ZM520.97 93.374C520.97 89.7953 519.75 86.9487 517.31 84.834C514.87 82.7193 511.82 81.662 508.16 81.662C504.663 81.662 501.694 82.6787 499.254 84.712C496.895 86.7453 495.431 89.6327 494.862 93.374H520.97ZM574.188 43.72V134H553.326V43.72H574.188Z" fill="black"/>
<path d="M216.064 143.168V175H211.878V151.264L201.298 175H198.354L187.728 151.218V175H183.542V143.168H188.05L199.826 169.48L211.602 143.168H216.064ZM242.069 142.938V175H237.883V142.938H242.069ZM268.109 171.596H279.333V175H263.923V142.938H268.109V171.596ZM302.685 171.596H313.909V175H298.499V142.938H302.685V171.596ZM347.61 175.322C344.636 175.322 341.922 174.632 339.468 173.252C337.015 171.841 335.068 169.894 333.626 167.41C332.216 164.895 331.51 162.074 331.51 158.946C331.51 155.818 332.216 153.012 333.626 150.528C335.068 148.013 337.015 146.066 339.468 144.686C341.922 143.275 344.636 142.57 347.61 142.57C350.616 142.57 353.345 143.275 355.798 144.686C358.252 146.066 360.184 147.998 361.594 150.482C363.005 152.966 363.71 155.787 363.71 158.946C363.71 162.105 363.005 164.926 361.594 167.41C360.184 169.894 358.252 171.841 355.798 173.252C353.345 174.632 350.616 175.322 347.61 175.322ZM347.61 171.688C349.849 171.688 351.858 171.167 353.636 170.124C355.446 169.081 356.856 167.594 357.868 165.662C358.911 163.73 359.432 161.491 359.432 158.946C359.432 156.37 358.911 154.131 357.868 152.23C356.856 150.298 355.461 148.811 353.682 147.768C351.904 146.725 349.88 146.204 347.61 146.204C345.341 146.204 343.317 146.725 341.538 147.768C339.76 148.811 338.349 150.298 337.306 152.23C336.294 154.131 335.788 156.37 335.788 158.946C335.788 161.491 336.294 163.73 337.306 165.662C338.349 167.594 339.76 169.081 341.538 170.124C343.348 171.167 345.372 171.688 347.61 171.688ZM409.164 175H404.978L388.142 149.47V175H383.956V142.892H388.142L404.978 168.376V142.892H409.164V175ZM449.972 167.87H435.988L433.412 175H428.996L440.588 143.122H445.418L456.964 175H452.548L449.972 167.87ZM448.776 164.466L442.98 148.274L437.184 164.466H448.776ZM493.618 175L485.982 161.89H480.922V175H476.736V142.938H487.086C489.509 142.938 491.548 143.352 493.204 144.18C494.891 145.008 496.148 146.127 496.976 147.538C497.804 148.949 498.218 150.559 498.218 152.368C498.218 154.576 497.574 156.523 496.286 158.21C495.029 159.897 493.128 161.016 490.582 161.568L498.632 175H493.618ZM480.922 158.532H487.086C489.356 158.532 491.058 157.98 492.192 156.876C493.327 155.741 493.894 154.239 493.894 152.368C493.894 150.467 493.327 148.995 492.192 147.952C491.088 146.909 489.386 146.388 487.086 146.388H480.922V158.532ZM523.629 142.938V175H519.443V142.938H523.629ZM560.019 175.322C557.044 175.322 554.33 174.632 551.877 173.252C549.424 171.841 547.476 169.894 546.035 167.41C544.624 164.895 543.919 162.074 543.919 158.946C543.919 155.818 544.624 153.012 546.035 150.528C547.476 148.013 549.424 146.066 551.877 144.686C554.33 143.275 557.044 142.57 560.019 142.57C563.024 142.57 565.754 143.275 568.207 144.686C570.66 146.066 572.592 147.998 574.003 150.482C575.414 152.966 576.119 155.787 576.119 158.946C576.119 162.105 575.414 164.926 574.003 167.41C572.592 169.894 570.66 171.841 568.207 173.252C565.754 174.632 563.024 175.322 560.019 175.322ZM560.019 171.688C562.258 171.688 564.266 171.167 566.045 170.124C567.854 169.081 569.265 167.594 570.277 165.662C571.32 163.73 571.841 161.491 571.841 158.946C571.841 156.37 571.32 154.131 570.277 152.23C569.265 150.298 567.87 148.811 566.091 147.768C564.312 146.725 562.288 146.204 560.019 146.204C557.75 146.204 555.726 146.725 553.947 147.768C552.168 148.811 550.758 150.298 549.715 152.23C548.703 154.131 548.197 156.37 548.197 158.946C548.197 161.491 548.703 163.73 549.715 165.662C550.758 167.594 552.168 169.081 553.947 170.124C555.756 171.167 557.78 171.688 560.019 171.688Z" fill="black"/>
<path fill-rule="evenodd" clip-rule="evenodd" d="M14.2738 62.2732C11.6491 57.9504 5 59.811 5 64.8683V166.169C5 170.056 9.23986 172.456 12.5725 170.457L17.5725 167.457C19.0785 166.553 20 164.925 20 163.169V73.1028C20 72.1877 19.7488 71.29 19.2738 70.5078L14.2738 62.2732ZM147.11 68.0116C150.072 64.3429 156 66.4373 156 71.1525V129.933C156 131.542 155.225 133.053 153.919 133.992L147.919 138.306C144.611 140.685 140 138.321 140 134.247V78.5841C140 77.4411 140.392 76.3326 141.11 75.4432L147.11 68.0116Z" fill="black"/>
<g filter="url(#filter0_d_14_15)">
<mask id="path-4-outside-1_14_15" maskUnits="userSpaceOnUse" x="3.19568" y="35.5" width="154" height="125" fill="black">
<rect fill="white" x="3.19568" y="35.5" width="154" height="125"/>
<path fill-rule="evenodd" clip-rule="evenodd" d="M9.19946 38.5C7.51582 38.5 6.58556 40.4533 7.64665 41.7605L59.4108 105.53C59.7001 105.886 59.8579 106.331 59.8579 106.79L59.8579 154.758C59.8579 156.311 61.5507 157.272 62.8838 156.475L73.5327 150.113C74.1369 149.752 74.5068 149.1 74.5068 148.396L74.5069 106.487C74.5069 106.031 74.3511 105.589 74.0653 105.233L20.9897 39.2465C20.6101 38.7745 20.037 38.5 19.4313 38.5H9.19946ZM151.566 42.0281C153.243 42.0168 154.188 43.9507 153.149 45.2672L105.549 105.568C105.286 105.901 105.136 106.309 105.12 106.734L104.223 131.13C104.199 131.774 103.867 132.367 103.331 132.723L94.1061 138.846C92.7767 139.729 91 138.776 91 137.18V106.462C91 106.021 91.1454 105.593 91.4138 105.244L139.303 42.882C139.679 42.3929 140.259 42.1044 140.876 42.1002L151.566 42.0281Z"/>
</mask>
<path fill-rule="evenodd" clip-rule="evenodd" d="M9.19946 38.5C7.51582 38.5 6.58556 40.4533 7.64665 41.7605L59.4108 105.53C59.7001 105.886 59.8579 106.331 59.8579 106.79L59.8579 154.758C59.8579 156.311 61.5507 157.272 62.8838 156.475L73.5327 150.113C74.1369 149.752 74.5068 149.1 74.5068 148.396L74.5069 106.487C74.5069 106.031 74.3511 105.589 74.0653 105.233L20.9897 39.2465C20.6101 38.7745 20.037 38.5 19.4313 38.5H9.19946ZM151.566 42.0281C153.243 42.0168 154.188 43.9507 153.149 45.2672L105.549 105.568C105.286 105.901 105.136 106.309 105.12 106.734L104.223 131.13C104.199 131.774 103.867 132.367 103.331 132.723L94.1061 138.846C92.7767 139.729 91 138.776 91 137.18V106.462C91 106.021 91.1454 105.593 91.4138 105.244L139.303 42.882C139.679 42.3929 140.259 42.1044 140.876 42.1002L151.566 42.0281Z" fill="url(#paint0_linear_14_15)"/>
<path d="M7.64665 41.7605L5.31744 43.6512H5.31744L7.64665 41.7605ZM59.4108 105.53L61.74 103.639L61.74 103.639L59.4108 105.53ZM59.8579 106.79H62.8579H59.8579ZM59.8579 154.758H56.8579H59.8579ZM62.8838 156.475L64.4225 159.051H64.4225L62.8838 156.475ZM73.5327 150.113L75.0714 152.688L73.5327 150.113ZM74.5068 148.396H71.5068H74.5068ZM74.5069 106.487H77.5069H74.5069ZM74.0653 105.233L76.403 103.353L76.4029 103.353L74.0653 105.233ZM20.9897 39.2465L23.3274 37.3662L23.3274 37.3662L20.9897 39.2465ZM153.149 45.2672L155.504 47.126V47.126L153.149 45.2672ZM151.566 42.0281L151.546 39.0282L151.566 42.0281ZM105.549 105.568L103.194 103.709L103.194 103.709L105.549 105.568ZM105.12 106.734L108.118 106.844L105.12 106.734ZM104.223 131.13L101.225 131.02L101.225 131.02L104.223 131.13ZM103.331 132.723L104.99 135.223L104.99 135.223L103.331 132.723ZM94.1061 138.846L95.7652 141.346L94.1061 138.846ZM91.4138 105.244L89.0344 103.416L89.0344 103.416L91.4138 105.244ZM139.303 42.882L136.924 41.0548L136.924 41.0548L139.303 42.882ZM140.876 42.1002L140.856 39.1003H140.856L140.876 42.1002ZM9.97586 39.8698C10.5064 40.5234 10.0413 41.5 9.19946 41.5V35.5C4.99036 35.5 2.66471 40.3832 5.31744 43.6512L9.97586 39.8698ZM61.74 103.639L9.97586 39.8698L5.31744 43.6512L57.0815 107.421L61.74 103.639ZM62.8579 106.79C62.8579 105.643 62.4632 104.53 61.74 103.639L57.0815 107.42C56.9369 107.242 56.8579 107.02 56.8579 106.79H62.8579ZM62.8579 154.758L62.8579 106.79H56.8579L56.8579 154.758H62.8579ZM61.345 153.9C62.0116 153.502 62.8579 153.982 62.8579 154.758H56.8579C56.8579 158.641 61.0897 161.042 64.4225 159.051L61.345 153.9ZM71.9939 147.537L61.345 153.9L64.4225 159.051L75.0714 152.688L71.9939 147.537ZM71.5068 148.396C71.5068 148.044 71.6918 147.718 71.9939 147.537L75.0714 152.688C76.5819 151.786 77.5068 150.155 77.5068 148.396H71.5068ZM71.5069 106.487L71.5068 148.396H77.5068L77.5069 106.487H71.5069ZM71.7276 107.114C71.5848 106.936 71.5069 106.715 71.5069 106.487H77.5069C77.5069 105.347 77.1174 104.241 76.403 103.353L71.7276 107.114ZM18.6521 41.1268L71.7276 107.114L76.4029 103.353L23.3274 37.3662L18.6521 41.1268ZM19.4313 41.5C19.1284 41.5 18.8419 41.3627 18.6521 41.1268L23.3274 37.3662C22.3783 36.1863 20.9456 35.5 19.4313 35.5V41.5ZM9.19946 41.5H19.4313V35.5H9.19946V41.5ZM155.504 47.126C158.102 43.8348 155.738 38.9999 151.546 39.0282L151.586 45.028C150.747 45.0337 150.275 44.0667 150.794 43.4084L155.504 47.126ZM107.904 107.427L155.504 47.126L150.794 43.4084L103.194 103.709L107.904 107.427ZM108.118 106.844C108.111 107.056 108.035 107.26 107.904 107.427L103.194 103.709C102.537 104.542 102.161 105.563 102.122 106.623L108.118 106.844ZM107.221 131.241L108.118 106.844L102.122 106.623L101.225 131.02L107.221 131.241ZM104.99 135.223C106.331 134.332 107.162 132.85 107.221 131.241L101.225 131.02C101.237 130.698 101.403 130.402 101.671 130.224L104.99 135.223ZM95.7652 141.346L104.99 135.223L101.671 130.224L92.447 136.347L95.7652 141.346ZM88 137.18C88 141.169 92.4418 143.552 95.7652 141.346L92.447 136.347C93.1116 135.906 94 136.382 94 137.18H88ZM88 106.462V137.18H94V106.462H88ZM89.0344 103.416C88.3636 104.29 88 105.36 88 106.462H94C94 106.682 93.9273 106.896 93.7931 107.071L89.0344 103.416ZM136.924 41.0548L89.0344 103.416L93.7931 107.071L141.683 44.7092L136.924 41.0548ZM140.856 39.1003C139.314 39.1107 137.863 39.8319 136.924 41.0548L141.683 44.7092C141.495 44.9538 141.205 45.0981 140.896 45.1001L140.856 39.1003ZM151.546 39.0282L140.856 39.1003L140.896 45.1001L151.586 45.028L151.546 39.0282Z" fill="url(#paint1_linear_14_15)" mask="url(#path-4-outside-1_14_15)"/>
</g>
<defs>
<filter id="filter0_d_14_15" x="0.190002" y="31.5" width="168.399" height="140.266" filterUnits="userSpaceOnUse" color-interpolation-filters="sRGB">
<feFlood flood-opacity="0" result="BackgroundImageFix"/>
<feColorMatrix in="SourceAlpha" type="matrix" values="0 0 0 0 0 0 0 0 0 0 0 0 0 0 0 0 0 0 127 0" result="hardAlpha"/>
<feOffset dx="4" dy="4"/>
<feGaussianBlur stdDeviation="4"/>
<feComposite in2="hardAlpha" operator="out"/>
<feColorMatrix type="matrix" values="0 0 0 0 0 0 0 0 0 0 0 0 0 0 0 0 0 0 0.25 0"/>
<feBlend mode="normal" in2="BackgroundImageFix" result="effect1_dropShadow_14_15"/>
<feBlend mode="normal" in="SourceGraphic" in2="effect1_dropShadow_14_15" result="shape"/>
</filter>
<linearGradient id="paint0_linear_14_15" x1="154" y1="41.5" x2="59" y2="152.5" gradientUnits="userSpaceOnUse">
<stop stop-color="#FF00A8"/>
<stop offset="1" stop-color="#8F00FF"/>
</linearGradient>
<linearGradient id="paint1_linear_14_15" x1="154" y1="38" x2="18" y2="151.5" gradientUnits="userSpaceOnUse">
<stop stop-color="#FF00C7"/>
<stop offset="1" stop-color="#8D33FF"/>
</linearGradient>
</defs>
</svg>
