<svg width="2182" height="825" viewBox="0 0 2182 825" fill="none" xmlns="http://www.w3.org/2000/svg">
<path fill-rule="evenodd" clip-rule="evenodd" d="M281.195 17.9762C305.164 41.9445 305.164 80.8048 281.195 104.773C280.429 105.539 279.648 106.281 278.853 106.998L352.207 224.415L411.443 143.038C404.929 135.366 401 125.431 401 114.578C401 90.2771 420.7 70.5777 445 70.5777C469.301 70.5777 489 90.2771 489 114.578C489 138.878 469.301 158.578 445 158.578C444.213 158.578 443.431 158.557 442.654 158.516L408.428 230.559H537.673C614.993 230.559 677.673 293.239 677.673 370.559V560.92C677.673 638.898 613.962 701.847 535.99 700.91L348.419 698.655C327.34 698.401 306.476 702.911 287.384 711.848L239.35 734.332L98.9999 815.363C54.9999 840.766 -2.22084e-06 809.012 0 758.205L8.42409e-06 565.485L4.53632e-05 565.412V370.559C4.53632e-05 293.239 62.6802 230.559 140 230.559H271.972L237.335 122.748C221.782 122.631 206.265 116.64 194.398 104.773C170.43 80.8048 170.43 41.9445 194.398 17.9762C218.367 -5.99208 257.227 -5.99208 281.195 17.9762ZM487 465C487 480.464 474.464 493 459 493C443.536 493 431 480.464 431 465C431 449.536 443.536 437 459 437C474.464 437 487 449.536 487 465ZM66 565.446L66 565.48V565.485L66 758.205L206.35 677.174L208.804 675.758L211.37 674.556L259.404 652.072C287.497 638.922 318.197 632.286 349.212 632.659L536.784 634.915C577.998 635.41 611.673 602.137 611.673 560.92V370.559C611.673 329.69 578.542 296.559 537.673 296.559H140C99.131 296.559 66 329.69 66 370.559V565.412V565.446Z" fill="url(#paint0_linear_318_44)"/>
<path d="M384 437.561C401.333 447.569 401.333 472.587 384 482.595L252.75 558.372C235.417 568.379 213.75 555.87 213.75 535.855L213.75 384.301C213.75 364.286 235.417 351.777 252.75 361.784L384 437.561Z" fill="url(#paint1_linear_318_44)"/>
<path d="M1040.84 306.72V536H1013.64V367.52C1013.64 365.28 1013.69 362.88 1013.8 360.32C1014.01 357.76 1014.23 355.147 1014.44 352.48L935.72 495.84C933.267 500.64 929.533 503.04 924.52 503.04H920.04C915.027 503.04 911.293 500.64 908.84 495.84L828.52 351.84C829.16 357.493 829.48 362.72 829.48 367.52V536H802.28V306.72H825.16C827.933 306.72 830.067 306.987 831.56 307.52C833.053 308.053 834.493 309.547 835.88 312L915.08 453.12C916.36 455.68 917.587 458.347 918.76 461.12C920.04 463.893 921.213 466.72 922.28 469.6C923.347 466.72 924.467 463.893 925.64 461.12C926.813 458.24 928.093 455.52 929.48 452.96L1007.24 312C1008.52 309.547 1009.91 308.053 1011.4 307.52C1013 306.987 1015.19 306.72 1017.96 306.72H1040.84ZM1156.07 371.36C1167.91 371.36 1178.57 373.333 1188.07 377.28C1197.56 381.227 1205.67 386.827 1212.39 394.08C1219.11 401.333 1224.23 410.133 1227.75 420.48C1231.37 430.72 1233.19 442.187 1233.19 454.88C1233.19 467.68 1231.37 479.2 1227.75 489.44C1224.23 499.68 1219.11 508.427 1212.39 515.68C1205.67 522.933 1197.56 528.533 1188.07 532.48C1178.57 536.32 1167.91 538.24 1156.07 538.24C1144.12 538.24 1133.35 536.32 1123.75 532.48C1114.25 528.533 1106.15 522.933 1099.43 515.68C1092.71 508.427 1087.53 499.68 1083.91 489.44C1080.39 479.2 1078.63 467.68 1078.63 454.88C1078.63 442.187 1080.39 430.72 1083.91 420.48C1087.53 410.133 1092.71 401.333 1099.43 394.08C1106.15 386.827 1114.25 381.227 1123.75 377.28C1133.35 373.333 1144.12 371.36 1156.07 371.36ZM1156.07 516C1172.07 516 1184.01 510.667 1191.91 500C1199.8 489.227 1203.75 474.24 1203.75 455.04C1203.75 435.733 1199.8 420.693 1191.91 409.92C1184.01 399.147 1172.07 393.76 1156.07 393.76C1147.96 393.76 1140.87 395.147 1134.79 397.92C1128.81 400.693 1123.8 404.693 1119.75 409.92C1115.8 415.147 1112.81 421.6 1110.79 429.28C1108.87 436.853 1107.91 445.44 1107.91 455.04C1107.91 474.24 1111.85 489.227 1119.75 500C1127.75 510.667 1139.85 516 1156.07 516ZM1296.19 397.44C1299.71 393.493 1303.44 389.92 1307.39 386.72C1311.34 383.52 1315.5 380.8 1319.87 378.56C1324.35 376.213 1329.04 374.453 1333.95 373.28C1338.96 372 1344.35 371.36 1350.11 371.36C1358.96 371.36 1366.75 372.853 1373.47 375.84C1380.3 378.72 1385.95 382.88 1390.43 388.32C1395.02 393.653 1398.48 400.107 1400.83 407.68C1403.18 415.253 1404.35 423.627 1404.35 432.8V536H1375.71V432.8C1375.71 420.533 1372.88 411.04 1367.23 404.32C1361.68 397.493 1353.2 394.08 1341.79 394.08C1333.36 394.08 1325.47 396.107 1318.11 400.16C1310.86 404.213 1304.14 409.707 1297.95 416.64V536H1269.31V373.92H1286.43C1290.48 373.92 1292.99 375.893 1293.95 379.84L1296.19 397.44ZM1556.23 437.28C1556.23 430.667 1555.27 424.64 1553.35 419.2C1551.53 413.653 1548.81 408.907 1545.19 404.96C1541.67 400.907 1537.35 397.813 1532.23 395.68C1527.11 393.44 1521.29 392.32 1514.79 392.32C1501.13 392.32 1490.31 396.32 1482.31 404.32C1474.41 412.213 1469.51 423.2 1467.59 437.28H1556.23ZM1579.27 513.28C1575.75 517.547 1571.53 521.28 1566.63 524.48C1561.72 527.573 1556.44 530.133 1550.79 532.16C1545.24 534.187 1539.48 535.68 1533.51 536.64C1527.53 537.707 1521.61 538.24 1515.75 538.24C1504.55 538.24 1494.2 536.373 1484.71 532.64C1475.32 528.8 1467.16 523.253 1460.23 516C1453.4 508.64 1448.07 499.573 1444.23 488.8C1440.39 478.027 1438.47 465.653 1438.47 451.68C1438.47 440.373 1440.17 429.813 1443.59 420C1447.11 410.187 1452.12 401.707 1458.63 394.56C1465.13 387.307 1473.08 381.653 1482.47 377.6C1491.85 373.44 1502.41 371.36 1514.15 371.36C1523.85 371.36 1532.81 373.013 1541.03 376.32C1549.35 379.52 1556.49 384.213 1562.47 390.4C1568.55 396.48 1573.29 404.053 1576.71 413.12C1580.12 422.08 1581.83 432.32 1581.83 443.84C1581.83 448.32 1581.35 451.307 1580.39 452.8C1579.43 454.293 1577.61 455.04 1574.95 455.04H1466.63C1466.95 465.28 1468.33 474.187 1470.79 481.76C1473.35 489.333 1476.87 495.68 1481.35 500.8C1485.83 505.813 1491.16 509.6 1497.35 512.16C1503.53 514.613 1510.47 515.84 1518.15 515.84C1525.29 515.84 1531.43 515.04 1536.55 513.44C1541.77 511.733 1546.25 509.92 1549.99 508C1553.72 506.08 1556.81 504.32 1559.27 502.72C1561.83 501.013 1564.01 500.16 1565.83 500.16C1568.17 500.16 1569.99 501.067 1571.27 502.88L1579.27 513.28ZM1752.59 373.92L1662.19 583.84C1661.23 585.973 1660 587.68 1658.51 588.96C1657.12 590.24 1654.93 590.88 1651.95 590.88H1630.83L1660.43 526.56L1593.55 373.92H1618.19C1620.64 373.92 1622.56 374.56 1623.95 375.84C1625.44 377.013 1626.45 378.347 1626.99 379.84L1670.35 481.92C1672.05 486.4 1673.49 491.093 1674.67 496C1676.16 490.987 1677.76 486.24 1679.47 481.76L1721.55 379.84C1722.19 378.133 1723.25 376.747 1724.75 375.68C1726.35 374.507 1728.11 373.92 1730.03 373.92H1752.59Z" fill="white"/>
<path d="M1945.27 345.76H1879.67V536H1825.59V345.76H1759.99V302.88H1945.27V345.76ZM2181.87 302.88L2088.43 536H2039.47L1946.03 302.88H1989.55C1994.24 302.88 1998.03 304 2000.91 306.24C2003.79 308.373 2005.97 311.147 2007.47 314.56L2052.59 439.36C2054.72 444.8 2056.8 450.773 2058.83 457.28C2060.85 463.68 2062.77 470.4 2064.59 477.44C2066.08 470.4 2067.73 463.68 2069.55 457.28C2071.47 450.773 2073.49 444.8 2075.63 439.36L2120.43 314.56C2121.6 311.573 2123.68 308.907 2126.67 306.56C2129.76 304.107 2133.55 302.88 2138.03 302.88H2181.87Z" fill="#FFAF01"/>
<defs>
<linearGradient id="paint0_linear_318_44" x1="639" y1="27.5782" x2="17.9998" y2="819.578" gradientUnits="userSpaceOnUse">
<stop stop-color="#FFE600"/>
<stop offset="0.5" stop-color="#FF5C00"/>
<stop offset="1" stop-color="#FF0000"/>
</linearGradient>
<linearGradient id="paint1_linear_318_44" x1="-16" y1="781.578" x2="559" y2="294.578" gradientUnits="userSpaceOnUse">
<stop stop-color="#FFAA01"/>
<stop offset="1" stop-color="#FF0B01"/>
</linearGradient>
</defs>
</svg>
